<svg width="19" height="15" viewBox="0 0 19 15" fill="none" xmlns="http://www.w3.org/2000/svg">
<path d="M17.3609 2.34592L4.29994 0.0161661C3.72758 -0.0867772 3.17154 0.313672 3.07227 0.882948L2.23107 5.70863H1.02943C0.461774 5.70863 0 6.17056 0 6.73807V13.9706C0 14.5381 0.461774 15 1.02943 15H14.3513C14.919 15 15.3808 14.5381 15.3808 13.9706V11.4274C15.7624 11.4955 16.1308 11.5758 16.4836 11.3648C16.7483 11.2064 16.9381 10.9333 16.9912 10.629L18.2195 3.58241C18.3205 3.00284 17.9354 2.44813 17.3609 2.34592ZM3.65184 0.98398C3.69596 0.731181 3.94126 0.549559 4.1967 0.595149L17.2577 2.9249C17.514 2.97064 17.6855 3.2202 17.6401 3.48124L17.4374 4.6445L3.4486 2.14944L3.65184 0.98398ZM14.7925 13.9706C14.7925 14.2138 14.5946 14.4118 14.3513 14.4118H1.02943C0.786192 14.4118 0.588247 14.2138 0.588247 13.9706V6.73807C0.588247 6.49483 0.786192 6.29688 1.02943 6.29688H14.3513C14.5946 6.29688 14.7925 6.49483 14.7925 6.73807V13.9706ZM16.4118 10.528C16.3203 11.0511 15.7394 10.8939 15.3808 10.8299V6.73807C15.3808 6.17056 14.919 5.70863 14.3513 5.70863H2.82829L3.34757 2.72887L4.19964 2.88078L17.3362 5.22392L16.4118 10.528Z" fill="#16CFA3"/>
<path d="M6.92967 13.2357H5.23846C5.0761 13.2357 4.94434 13.1039 4.94434 12.9416C4.94434 12.7792 5.0761 12.6475 5.23846 12.6475H6.92967C7.09203 12.6475 7.22379 12.7792 7.22379 12.9416C7.22379 13.1039 7.09217 13.2357 6.92967 13.2357Z" fill="#16CFA3"/>
<path d="M3.71678 13.2357H2.02557C1.86321 13.2357 1.73145 13.1039 1.73145 12.9416C1.73145 12.7792 1.86321 12.6475 2.02557 12.6475H3.71678C3.87914 12.6475 4.0109 12.7792 4.0109 12.9416C4.0109 13.1039 3.87914 13.2357 3.71678 13.2357Z" fill="#16CFA3"/>
<path d="M10.1426 13.2357H8.45135C8.28899 13.2357 8.15723 13.1039 8.15723 12.9416C8.15723 12.7792 8.28899 12.6475 8.45135 12.6475H10.1426C10.3049 12.6475 10.4367 12.7792 10.4367 12.9416C10.4367 13.1039 10.3051 13.2357 10.1426 13.2357Z" fill="#16CFA3"/>
<path d="M13.3555 13.2357H11.6642C11.5019 13.2357 11.3701 13.1039 11.3701 12.9416C11.3701 12.7792 11.5019 12.6475 11.6642 12.6475H13.3555C13.5178 12.6475 13.6496 12.7792 13.6496 12.9416C13.6496 13.1039 13.5178 13.2357 13.3555 13.2357Z" fill="#16CFA3"/>
<path d="M4.476 11.7099H2.34566C1.94021 11.7099 1.61035 11.38 1.61035 10.9746V10.1298C1.61035 9.72439 1.94021 9.39453 2.34566 9.39453H4.476C4.88145 9.39453 5.21131 9.72439 5.21131 10.1298V10.9746C5.21131 11.3799 4.8813 11.7099 4.476 11.7099ZM2.34566 9.98263C2.26463 9.98263 2.1986 10.0485 2.1986 10.1297V10.9744C2.1986 11.0556 2.26463 11.1215 2.34566 11.1215H4.476C4.55703 11.1215 4.62306 11.0556 4.62306 10.9744V10.1297C4.62306 10.0485 4.55703 9.98263 4.476 9.98263H2.34566Z" fill="#16CFA3"/>
</svg>
