<svg
  width="45"
  height="45"
  viewBox="0 0 45 51"
  fill='#FFFAE2'
  xmlns="http://www.w3.org/2000/svg"
>
  <path
    d="M14.819 44.571C7.16118 41.4258 2.209 34.0513 2.209 25.7684C2.209 14.5747 11.3222 5.46149 22.5159 5.46149H22.8675L20.787 7.21966C20.4549 7.50292 20.4158 7.9913 20.6893 8.3234C20.9726 8.6555 21.461 8.69457 21.7931 8.42108L25.4559 5.32474C25.6513 5.15869 25.7489 4.9145 25.7294 4.68008C25.7392 4.44566 25.6513 4.20147 25.4559 4.03542L21.8028 0.948854C21.4707 0.665593 20.9726 0.714431 20.6991 1.04653C20.4158 1.37863 20.4647 1.87678 20.7968 2.15027L22.8577 3.8889C22.5842 3.93774 14.0864 3.25401 7.04396 10.2965C-0.535702 17.8859 -1.37572 29.5875 4.44578 38.1048C6.87792 41.6603 10.2575 44.3952 14.2329 46.0264C14.6334 46.1924 15.0925 45.9971 15.2585 45.5966C15.4148 45.1864 15.2292 44.7273 14.819 44.571ZM37.9878 41.2403C45.6065 33.6215 46.3684 21.9297 40.6152 13.4709C38.1929 9.92529 34.8231 7.18059 30.8769 5.5494C30.4765 5.38335 30.0174 5.5787 29.8513 5.96941C29.6853 6.36988 29.8806 6.82896 30.2811 6.99501C37.8998 10.1499 42.8325 17.5147 42.8325 25.7684C42.8325 36.962 33.7193 46.0752 22.5256 46.0752H22.174L24.2545 44.317C24.5866 44.0338 24.6257 43.5454 24.3522 43.2133C24.0689 42.8812 23.5805 42.8421 23.2484 43.1156L19.5856 46.2022C19.2046 46.5245 19.2046 47.1692 19.5856 47.4915C23.3461 50.5781 23.2387 50.7637 23.7563 50.7637C24.4889 50.7637 24.821 49.8455 24.2643 49.3767L22.174 47.6478C22.4475 47.5892 30.9453 48.2729 37.9878 41.2403V41.2403Z"
    fill='#FFFAE2'
  />
</svg>
