<svg width="15" height="18" viewBox="0 0 15 18" fill="none" xmlns="http://www.w3.org/2000/svg">
<path d="M7.5 0C4.50117 0 2 2.41567 2 5.5C2 6.6734 2.3526 7.71973 3.0293 8.7002L7.0791 15.0195C7.27557 15.3267 7.72483 15.3261 7.9209 15.0195L11.9883 8.6787C12.6504 7.74267 13 6.64357 13 5.5C13 2.4673 10.5327 0 7.5 0ZM7.5 8C6.12157 8 5 6.87843 5 5.5C5 4.12157 6.12157 3 7.5 3C8.87843 3 10 4.12157 10 5.5C10 6.87843 8.87843 8 7.5 8Z" fill="#16CFA3"/>
<path d="M11.4088 11.4898L8.8911 15.4261C8.2394 16.4421 6.75697 16.4388 6.1084 15.427L3.5866 11.4909C1.3678 12.0039 0 12.9436 0 14.0667C0 16.0154 3.86427 17.0667 7.5 17.0667C11.1357 17.0667 15 16.0154 15 14.0667C15 12.9428 13.6303 12.0026 11.4088 11.4898Z" fill="#16CFA3"/>
</svg>
