<svg width="109" height="156" viewBox="0 0 109 156" fill="none" xmlns="http://www.w3.org/2000/svg">
<path d="M93.3991 29.2235C82.7391 20.6781 69.2078 15.5667 54.4825 15.5667C39.7572 15.5667 26.2259 20.6781 15.5658 29.2235V23.35C15.5658 10.4542 26.02 0 38.9158 0H70.0491C82.9453 0 93.3991 10.4542 93.3991 23.35V29.2235Z" fill="#31394F"/>
<path d="M15.5658 126.444C26.2259 134.989 39.7572 140.101 54.4825 140.101C69.2078 140.101 82.7391 134.989 93.3991 126.444V132.317C93.3991 145.213 82.9453 155.667 70.0491 155.667H38.9158C26.02 155.667 15.5658 145.213 15.5658 132.317V126.444Z" fill="#31394F"/>
<path fill-rule="evenodd" clip-rule="evenodd" d="M0 77.8336C0 47.7434 24.393 23.3503 54.4833 23.3503C84.5737 23.3503 108.967 47.7434 108.967 77.8336C108.967 107.924 84.5737 132.317 54.4833 132.317C24.393 132.317 0 107.924 0 77.8336ZM62.2667 54.4836C62.2667 58.7822 58.7821 62.267 54.4833 62.267C50.1846 62.267 46.7 58.7822 46.7 54.4836C46.7 50.1851 50.1846 46.7003 54.4833 46.7003C58.7821 46.7003 62.2667 50.1851 62.2667 54.4836ZM54.4833 108.967C58.7821 108.967 62.2667 105.482 62.2667 101.184C62.2667 96.8849 58.7821 93.4003 54.4833 93.4003C50.1846 93.4003 46.7 96.8849 46.7 101.184C46.7 105.482 50.1846 108.967 54.4833 108.967ZM77.8333 85.617C73.5346 85.617 70.05 82.1324 70.05 77.8336C70.05 73.5349 73.5346 70.0503 77.8333 70.0503C82.1321 70.0503 85.6167 73.5349 85.6167 77.8336C85.6167 82.1324 82.1321 85.617 77.8333 85.617ZM23.35 77.8336C23.35 82.1324 26.8348 85.617 31.1333 85.617C35.4319 85.617 38.9167 82.1324 38.9167 77.8336C38.9167 73.5349 35.4319 70.0503 31.1333 70.0503C26.8348 70.0503 23.35 73.5349 23.35 77.8336ZM76.4977 66.8265C73.4583 69.8659 68.5307 69.8659 65.4905 66.8265C62.4511 63.7871 62.4511 58.8587 65.4905 55.8191C68.5307 52.7796 73.4583 52.7796 76.4977 55.8191C79.5379 58.8587 79.5379 63.7871 76.4977 66.8265ZM32.4686 99.848C35.5082 102.887 40.436 102.887 43.4761 99.848C46.5155 96.8086 46.5155 91.8802 43.4761 88.8408C40.436 85.8014 35.5082 85.8014 32.4686 88.8408C29.429 91.8802 29.429 96.8086 32.4686 99.848ZM65.4905 99.848C62.4511 96.8086 62.4511 91.881 65.4905 88.8408C68.5299 85.8014 73.4583 85.8014 76.4977 88.8408C79.5371 91.881 79.5371 96.8086 76.4977 99.848C73.4583 102.888 68.5299 102.888 65.4905 99.848ZM32.4689 55.819C29.4293 58.8585 29.4293 63.7863 32.4689 66.8265C35.5084 69.8659 40.4368 69.8659 43.4761 66.8265C46.5155 63.7863 46.5155 58.8585 43.4761 55.819C40.4368 52.7793 35.5084 52.7793 32.4689 55.819Z" fill="#31394F"/>
</svg>
