<svg width="218" height="170" viewBox="0 0 218 170" fill="none" xmlns="http://www.w3.org/2000/svg">
<path fill-rule="evenodd" clip-rule="evenodd" d="M16.2614 154.146C16.969 155.611 16.3537 157.372 14.8894 158.08C13.425 158.788 11.6654 158.172 10.9578 156.707C7.35854 149.288 4.62063 141.5 2.78099 133.509C0.941355 125.5 0 117.299 0 109.068C0 78.9505 12.2007 51.6835 31.926 31.9459C51.6513 12.2083 78.9013 0 109 0C139.099 0 166.349 12.2083 186.074 31.9459C205.799 51.6835 218 78.9505 218 109.068C218 118.069 216.88 127.002 214.702 135.682C212.524 144.351 209.276 152.754 205.012 160.696C204.243 162.13 202.452 162.666 201.019 161.897C199.585 161.127 199.05 159.335 199.819 157.901C203.849 150.396 206.919 142.454 208.98 134.248C211.041 126.054 212.093 117.595 212.093 109.062C212.093 80.5758 200.557 54.7864 181.896 36.12C163.242 17.4536 137.468 5.90405 109 5.90405C80.5318 5.90405 54.7584 17.4474 36.1036 36.12C17.4489 54.7864 5.90652 80.5758 5.90652 109.062C5.90652 116.887 6.7925 124.644 8.52139 132.192C10.2626 139.758 12.8528 147.121 16.2614 154.146V154.146ZM162.251 164.975L148.82 151.597C152.93 150.63 156.609 148.525 159.501 145.631C163.543 141.586 166.047 136.009 166.047 129.871V88.333C166.195 87.2987 166.269 86.2398 166.269 85.1624V51.1848C166.269 47.9896 165.604 44.9483 164.398 42.1841C163.266 39.4075 161.587 36.908 159.495 34.821C155.452 30.7762 149.878 28.2705 143.744 28.2705H73.0686C67.3898 28.2705 62.2277 30.5915 58.4869 34.3346C54.7461 38.0777 52.4266 43.243 52.4266 48.9254V129.864C52.4266 136.002 54.9368 141.58 58.973 145.625C62.2585 148.913 66.553 151.184 71.3398 151.917L58.3577 164.845C57.2072 165.991 57.201 167.856 58.3454 169.013C59.4898 170.165 61.354 170.171 62.5107 169.026L79.4305 152.175H141.061L158.104 169.143C159.255 170.288 161.119 170.288 162.269 169.13C163.42 167.973 163.408 166.12 162.251 164.975V164.975ZM136.145 116.142C133.161 116.142 130.454 117.355 128.498 119.312C126.541 121.27 125.329 123.973 125.329 126.965C125.329 129.951 126.541 132.66 128.498 134.617C130.454 136.575 133.155 137.788 136.145 137.788C139.129 137.788 141.837 136.575 143.793 134.617C145.75 132.66 146.962 129.957 146.962 126.965C146.962 123.979 145.75 121.27 143.793 119.312C141.837 117.355 139.136 116.142 136.145 116.142ZM139.615 123.493C138.73 122.606 137.499 122.052 136.145 122.052C134.792 122.052 133.561 122.6 132.675 123.493C131.789 124.379 131.236 125.61 131.236 126.965C131.236 128.319 131.783 129.55 132.675 130.437C133.561 131.324 134.792 131.878 136.145 131.878C137.499 131.878 138.73 131.33 139.615 130.437C140.501 129.55 141.055 128.319 141.055 126.965C141.055 125.604 140.501 124.379 139.615 123.493ZM160.141 100.646C159.968 100.831 159.79 101.015 159.612 101.194C155.502 105.306 149.829 107.855 143.59 107.855H75.3205C69.0817 107.855 63.409 105.3 59.2991 101.194C58.9607 100.855 58.6407 100.51 58.3269 100.153V129.871C58.3269 134.377 60.1727 138.477 63.1444 141.451C66.1162 144.424 70.2138 146.271 74.7175 146.271H143.75C148.254 146.271 152.351 144.424 155.323 141.451C158.295 138.477 160.141 134.377 160.141 129.871V100.646ZM143.59 34.4023H74.1946C69.8939 34.4023 65.9808 36.1631 63.1444 39.0012C60.3081 41.8393 58.5484 45.7548 58.5484 50.0582V85.1624C58.5484 89.7736 60.4373 93.9723 63.4767 97.0136C66.5161 100.055 70.7122 101.945 75.3205 101.945H143.59C148.198 101.945 152.395 100.055 155.434 97.0136C157.864 94.5818 159.562 91.4112 160.141 87.8774V50.5815C160.141 48.4267 159.716 46.3643 158.953 44.4681C158.104 42.5412 156.904 40.7989 155.434 39.3275C152.395 36.2924 148.198 34.4023 143.59 34.4023V34.4023ZM82.5068 116.48C79.5228 116.48 76.8156 117.693 74.8591 119.651C72.9025 121.609 71.6904 124.311 71.6904 127.303C71.6904 130.289 72.9025 132.998 74.8591 134.956C76.8156 136.914 79.5166 138.126 82.5068 138.126C85.4908 138.126 88.198 136.914 90.1545 134.956C92.111 132.998 93.3231 130.295 93.3231 127.303C93.3231 124.317 92.111 121.609 90.1545 119.651C88.198 117.693 85.4908 116.48 82.5068 116.48ZM85.9769 123.831C85.0909 122.945 83.8604 122.391 82.5068 122.391C81.1532 122.391 79.9227 122.938 79.0367 123.831C78.1507 124.718 77.597 125.949 77.597 127.303C77.597 128.658 78.1446 129.889 79.0367 130.776C79.9227 131.662 81.1532 132.216 82.5068 132.216C83.8604 132.216 85.0909 131.668 85.9769 130.776C86.8628 129.889 87.4166 128.658 87.4166 127.303C87.4166 125.943 86.8628 124.718 85.9769 123.831Z" fill="#FFFAE2"/>
</svg>
