<svg width="50" height="50" viewBox="0 0 50 50" fill="none" xmlns="http://www.w3.org/2000/svg">
<path d="M48.0636 34.8956C48.0782 34.8645 48.0912 34.8328 48.1016 34.8002C51.064 27.6782 50.5346 18.9469 46.687 12.2735C48.7411 9.71567 46.073 6.05275 43.1552 7.47C42.6425 6.92421 42.1042 6.40111 41.5463 5.90651C42.6413 2.80577 38.9867 0.262128 36.7106 2.57882C30.0952 -0.900801 21.8671 -0.856734 15.2881 2.69657C12.9478 0.113136 9.01736 2.88312 10.4343 6.1245C9.62282 6.86366 8.85469 7.66215 8.14645 8.50653C7.53494 9.23562 8.64278 10.2349 9.25009 9.5109C9.90899 8.72544 10.6229 7.98242 11.377 7.29384C12.8351 8.3894 14.9495 7.83129 15.7495 6.159C18.3895 6.95057 20.9106 8.08663 23.2598 9.54469C23.0631 10.2834 23.1434 11.1085 23.4809 11.7905C21.5474 13.5302 19.8061 15.4983 18.2941 17.6551C16.8983 17.2157 15.3597 17.9511 14.7526 19.3281C11.6744 19.3453 8.5865 19.6902 5.55482 20.3577C5.28712 19.838 4.88127 19.4074 4.38924 19.119C4.95884 16.8053 5.86102 14.6043 7.07623 12.5692C7.56044 11.7581 6.33819 10.9149 5.83181 11.7629C4.5398 13.9265 3.58018 16.2663 2.97326 18.7259C-0.537156 18.788 -1.12649 23.8466 2.21539 24.8197C2.16615 32.0191 5.15444 39.0187 10.3363 43.7868C9.25536 46.8284 12.7647 49.3373 15.0806 47.1919C21.8394 50.9356 30.3813 50.9361 37.1405 47.1932C39.496 49.6198 43.2687 46.9088 41.9419 43.7365C44.6125 41.2642 46.6872 38.2403 48.0636 34.8956ZM47.1403 33.1885C45.1119 31.0893 42.8921 29.1851 40.5222 27.5135C40.8588 26.4153 40.5662 25.1798 39.7802 24.3691C41.7731 20.9175 43.3376 17.2165 44.4389 13.3504C44.8059 13.3517 45.1587 13.2812 45.4837 13.1536C48.8583 19.0901 49.4754 26.7443 47.1403 33.1885ZM13.421 41.8169C12.8043 35.525 13.8864 29.2479 16.5647 23.5753C18.2286 24.1162 20.0269 22.9764 20.35 21.1974C25.4027 21.8462 30.2689 23.3913 34.8357 25.7977C34.616 26.687 34.7978 27.6675 35.321 28.4073C30.1734 35.2004 23.3786 40.312 15.602 43.2416C15.1307 42.4644 14.3383 41.9207 13.421 41.8169ZM36.2076 26.5712C36.2076 25.7062 36.8782 25.0026 37.7025 25.0026C39.6857 25.0886 39.6851 28.0541 37.7025 28.1397C36.8782 28.1397 36.2076 27.4361 36.2076 26.5712ZM45.9403 10.2554C45.9403 11.1203 45.2697 11.8239 44.4454 11.8239C42.4621 11.7379 42.4626 8.77246 44.4454 8.68677C45.2697 8.68677 45.9403 9.39041 45.9403 10.2554ZM42.0355 8.46094C41.0227 9.94322 41.4927 12.086 43.0196 12.967C41.9528 16.6963 40.4404 20.2662 38.5164 23.596C38.1141 23.4755 37.6676 23.4456 37.2541 23.5115C35.243 19.0382 32.3167 15.009 28.742 11.7907C29.0798 11.1083 29.1603 10.2847 28.9633 9.5449C31.226 8.14067 33.6497 7.03402 36.1841 6.24734C37.0265 7.9414 39.2863 8.41972 40.6891 7.15157C41.1541 7.56821 41.6042 8.00593 42.0355 8.46094ZM24.6166 10.3735C24.6166 9.50856 25.2872 8.80492 26.1115 8.80492C28.0947 8.89092 28.0942 11.8563 26.1115 11.942C25.2872 11.942 24.6166 11.2384 24.6166 10.3735ZM38.7899 3.21102C39.6143 3.21102 40.285 3.91466 40.285 4.77961C40.2027 6.8605 37.377 6.85999 37.295 4.77961C37.295 3.91466 37.9656 3.21102 38.7899 3.21102ZM13.1003 6.34809C12.276 6.34809 11.6054 5.64445 11.6054 4.7795C11.6876 2.69851 14.5134 2.69922 14.5953 4.7795C14.5953 5.64445 13.9246 6.34809 13.1003 6.34809ZM16.058 4.66247C16.0504 4.45058 16.0225 4.24429 15.976 4.04523C22.1099 0.741058 29.773 0.683456 35.9542 3.89156C35.8748 4.16827 35.8313 4.46086 35.8299 4.76383C33.164 5.58532 30.6149 6.74571 28.235 8.22005C27.0912 6.98751 25.1323 6.9871 23.9881 8.21995C21.5081 6.68342 18.846 5.48905 16.058 4.66247ZM24.4511 12.9346C25.442 13.639 26.7808 13.6391 27.7717 12.9347C31.1847 16.0042 33.9805 19.8465 35.9063 24.1132C35.7757 24.2177 35.6538 24.3334 35.5416 24.4587C30.727 21.915 25.5891 20.2976 20.2522 19.6469C20.1081 19.1926 19.8662 18.7847 19.5522 18.4508C20.9845 16.4241 22.6283 14.573 24.4511 12.9346ZM17.4422 19.0504C18.2665 19.0504 18.9371 19.7541 18.9371 20.619C18.8548 22.7 16.0291 22.6994 15.9471 20.619C15.9472 19.7541 16.6179 19.0504 17.4422 19.0504ZM1.45156 21.8204C1.45156 20.9555 2.12218 20.2518 2.94649 20.2518C4.92963 20.3378 4.92905 23.3032 2.94649 23.3889C2.12228 23.389 1.45156 22.6854 1.45156 21.8204ZM3.68081 24.8191C3.68081 24.8191 5.90655 24.3135 5.90655 21.8406C5.90655 21.8406 11.6178 20.8896 14.4913 20.8562C14.5452 21.5957 14.8484 22.263 15.3133 22.7666C12.4577 28.7508 11.3059 35.3854 11.9689 42.0338C11.6834 42.1578 11.4206 42.3272 11.1883 42.5332C6.40766 38.0722 3.68081 30.5978 3.68081 24.8191ZM13.1003 46.462C12.276 46.462 11.6054 45.7584 11.6054 44.8935C11.6054 44.0285 12.276 43.3249 13.1003 43.3249C13.9136 43.3249 14.5953 44.0586 14.5953 44.8935C14.5953 45.7584 13.9246 46.462 13.1003 46.462ZM26.1115 48.4849C22.5551 48.4849 19.0382 47.5977 15.895 45.9133C16.0226 45.5324 16.0788 45.0984 16.054 44.6942C24.0986 41.6738 31.1283 36.3952 36.4536 29.3765C36.8911 29.5902 37.3766 29.6883 37.8589 29.6619C38.1845 30.9205 38.4417 32.2045 38.624 33.4885C38.7636 34.4714 40.2138 34.2518 40.0738 33.2652C39.8803 31.9019 39.6062 30.5384 39.2583 29.2029C39.4335 29.0894 39.5963 28.957 39.7446 28.8089C42.1898 30.5381 44.4696 32.5231 46.5349 34.72C45.2541 37.6694 43.3898 40.34 41.0212 42.5466C40.787 42.3635 40.5259 42.2161 40.2456 42.1113C40.3896 40.6923 40.4523 39.2596 40.4312 37.8425C40.4164 36.8454 38.9509 36.8688 38.9659 37.8661C38.9862 39.2282 38.9256 40.6055 38.7865 41.9695C37.0583 42.2558 35.928 44.1225 36.4042 45.8719C33.2412 47.583 29.6971 48.4849 26.1115 48.4849ZM39.2514 46.5948C38.4271 46.5948 37.7564 45.8911 37.7564 45.0262C37.8387 42.9452 40.6644 42.9459 40.7464 45.0262C40.7464 45.8911 40.0758 46.5948 39.2514 46.5948Z" fill="#31394F"/>
</svg>
