<svg width="15" height="15" viewBox="0 0 15 15" fill="none" xmlns="http://www.w3.org/2000/svg">
<path d="M12.1073 5.77539C11.7902 5.77539 11.5307 6.03483 11.5307 6.35192V12.9821C11.5307 13.4577 11.1416 13.8469 10.6659 13.8469H2.01788C1.54224 13.8469 1.15307 13.4577 1.15307 12.9821V4.33404C1.15307 3.8584 1.54224 3.46924 2.01788 3.46924H8.05351C8.3706 3.46924 8.63004 3.2098 8.63004 2.8927C8.63004 2.5756 8.3706 2.31616 8.05351 2.31616H2.01788C0.904443 2.31616 0 3.22061 0 4.33404V12.9821C0 14.0955 0.904443 15 2.01788 15H10.6659C11.7794 15 12.6838 14.0955 12.6838 12.9821V6.35192C12.6838 6.03483 12.4244 5.77539 12.1073 5.77539Z" fill="#31394F"/>
<path d="M14.4211 0H10.367C10.0485 0 9.78789 0.26057 9.78789 0.579044C9.78789 0.897518 10.0485 1.15809 10.367 1.15809H13.0239L5.90391 8.27671C5.67949 8.50109 5.67949 8.87023 5.90391 9.09461C6.01612 9.2068 6.16453 9.26471 6.31294 9.26471C6.46135 9.26471 6.60976 9.2068 6.72197 9.09461L13.842 1.97599V4.63235C13.842 4.95083 14.1026 5.2114 14.4211 5.2114C14.7397 5.2114 15.0003 4.95083 15.0003 4.63235V0.579044C15.0003 0.26057 14.7397 0 14.4211 0Z" fill="#31394F"/>
</svg>
