<svg width="196" height="141" viewBox="0 0 196 141" fill="none" xmlns="http://www.w3.org/2000/svg">
<path fill-rule="evenodd" clip-rule="evenodd" d="M152.178 54.5117C128.357 54.5117 109.023 73.8452 109.023 97.6668C109.023 121.488 128.357 140.822 152.178 140.822C176 140.822 195.334 121.488 195.334 97.6668C195.334 73.8452 176 54.5117 152.178 54.5117ZM134.508 107.025L143.593 116.11C144.974 117.491 146.864 118.209 148.808 118.1C150.743 117.981 152.551 117.055 153.75 115.528L171.149 93.5966C173.483 90.6438 172.984 86.3556 170.04 84.0207C167.096 81.6858 162.799 82.1764 160.464 85.1291L147.827 101.074L144.147 97.3942C141.485 94.7322 137.17 94.7322 134.508 97.3942C131.855 100.047 131.855 104.372 134.508 107.025Z" fill="#FFFAE2"/>
<path fill-rule="evenodd" clip-rule="evenodd" d="M130.855 49.969H0V106.752C0 113.375 2.63473 119.735 7.31365 124.423C12.0016 129.102 18.3613 131.736 24.9845 131.736H112.585C104.708 122.588 99.938 110.677 99.938 97.6667C99.938 76.4253 112.639 58.1367 130.855 49.969ZM61.3347 90.8527H34.0698C30.3085 90.8527 27.2558 93.9054 27.2558 97.6667C27.2558 101.428 30.3085 104.481 34.0698 104.481H61.3347C65.096 104.481 68.1486 101.428 68.1486 97.6667C68.1486 93.9054 65.096 90.8527 61.3347 90.8527ZM0 36.3411H177.163V24.9845C177.163 18.3613 174.528 12.0016 169.849 7.31364C165.161 2.63473 158.801 0 152.178 0C120.716 0 56.4468 0 24.9845 0C18.3613 0 12.0016 2.63473 7.31365 7.31364C2.63473 12.0016 0 18.3613 0 24.9845V36.3411Z" fill="#FFFAE2"/>
</svg>
