<svg width="12" height="12" viewBox="0 0 12 12" fill="none" xmlns="http://www.w3.org/2000/svg">
<path d="M5.53125 8.10892V6.46829H3.89062C3.63171 6.46829 3.42188 6.25845 3.42188 5.99954C3.42188 5.74072 3.63171 5.53079 3.89062 5.53079H5.53125V3.89017C5.53125 3.63135 5.74109 3.42142 6 3.42142C6.25891 3.42142 6.46875 3.63135 6.46875 3.89017V5.53079H8.10938C8.36829 5.53079 8.57812 5.74072 8.57812 5.99954C8.57812 6.25845 8.36829 6.46829 8.10938 6.46829H6.46875V8.10892C6.46875 8.36783 6.25891 8.57767 6 8.57767C5.74109 8.57767 5.53125 8.36783 5.53125 8.10892ZM10.2426 1.75735C9.10941 0.624115 7.60263 0 6 0C4.39737 0 2.89059 0.624115 1.75735 1.75735C0.624115 2.89059 0 4.39737 0 6C0 7.60263 0.624115 9.10941 1.75735 10.2426C2.89059 11.3759 4.39737 12 6 12C7.09717 12 8.17072 11.701 9.10455 11.1353C9.32602 11.0012 9.39679 10.713 9.26266 10.4916C9.12854 10.2701 8.84024 10.1993 8.61887 10.3335C7.83151 10.8104 6.92587 11.0625 6 11.0625C3.20856 11.0625 0.9375 8.79144 0.9375 6C0.9375 3.20856 3.20856 0.9375 6 0.9375C8.79144 0.9375 11.0625 3.20856 11.0625 6C11.0625 6.9982 10.7657 7.96976 10.2041 8.80984C10.0602 9.02499 10.118 9.31613 10.3333 9.46005C10.5484 9.60388 10.8396 9.54602 10.9835 9.33087C11.6484 8.33615 12 7.18433 12 6C12 4.39737 11.3759 2.89059 10.2426 1.75735Z" fill="#31394F"/>
</svg>
