<svg width="80" height="80" viewBox="0 0 80 80" fill="none" xmlns="http://www.w3.org/2000/svg">
<g clip-path="url(#clip0_6913_2907)">
<path d="M0 40C0 17.9086 17.9086 0 40 0V0C62.0914 0 80 17.9086 80 40V40C80 62.0914 62.0914 80 40 80V80C17.9086 80 0 62.0914 0 40V40Z" fill="#31394F"/>
</g>
<path d="M50.5599 49.0489C38.6503 54.5489 31.259 49.9472 26.5276 47.1522C26.2348 46.976 25.7372 47.1934 26.169 47.6746C27.7452 49.5292 32.911 53.9994 39.6538 53.9994C46.4012 53.9994 50.4153 50.4268 50.9174 49.8035C51.4162 49.1856 51.0639 48.8447 50.5598 49.0489H50.5599ZM53.9047 47.2564C53.5849 46.8523 51.96 46.7769 50.9374 46.8988C49.9131 47.0172 48.3758 47.6246 48.5095 47.9893C48.5781 48.1259 48.7181 48.0647 49.4216 48.0033C50.1272 47.935 52.1036 47.6929 52.5154 48.2153C52.9292 48.7414 51.8851 51.2472 51.6944 51.6514C51.5101 52.0555 51.7648 52.1597 52.1108 51.8905C52.4522 51.6215 53.0701 50.9247 53.4847 49.9386C53.8966 48.9472 54.1477 47.5641 53.9046 47.2564H53.9047Z" fill="white"/>
<path fill-rule="evenodd" clip-rule="evenodd" d="M42.5529 37.8266C42.5529 39.2698 42.5904 40.4733 41.8387 41.7549C41.232 42.7969 40.271 43.4377 39.1972 43.4377C37.7314 43.4377 36.8777 42.354 36.8777 40.7546C36.8777 37.5973 39.793 37.0243 42.5529 37.0243V37.8266ZM46.4024 46.8555C46.15 47.0743 45.7849 47.09 45.5004 46.944C44.2333 45.9229 44.0078 45.4488 43.3099 44.4745C41.216 46.5481 39.7341 47.1681 37.0174 47.1681C33.8067 47.1681 31.3047 45.2456 31.3047 41.3954C31.3047 38.3893 32.9853 36.3418 35.3744 35.3415C37.4469 34.4557 40.3408 34.2995 42.5529 34.0547V33.5753C42.5529 32.6948 42.6226 31.6528 42.0911 30.8922C41.6239 30.2097 40.7327 29.9283 39.9488 29.9283C38.4938 29.9283 37.1945 30.6525 36.8777 32.1529C36.8132 32.4865 36.561 32.8147 36.2174 32.8303L32.5127 32.4448C32.2013 32.377 31.8578 32.1322 31.9437 31.6684C32.7973 27.313 36.8508 26 40.4802 26C42.3379 26 44.7647 26.4794 46.2305 27.8444C48.0882 29.5272 47.911 31.7726 47.911 34.2161V39.9887C47.911 41.7237 48.6519 42.4843 49.3499 43.4221C49.5968 43.7555 49.6506 44.1568 49.3391 44.4068C48.5606 45.0371 47.1754 46.2094 46.413 46.8659L46.4023 46.8555" fill="white"/>
<path d="M50.5599 49.0489C38.6503 54.5489 31.259 49.9472 26.5276 47.1522C26.2348 46.976 25.7372 47.1934 26.169 47.6746C27.7452 49.5292 32.911 53.9994 39.6538 53.9994C46.4012 53.9994 50.4153 50.4268 50.9174 49.8035C51.4162 49.1856 51.0639 48.8447 50.5598 49.0489H50.5599ZM53.9047 47.2564C53.5849 46.8523 51.96 46.7769 50.9374 46.8988C49.9131 47.0172 48.3758 47.6246 48.5095 47.9893C48.5781 48.1259 48.7181 48.0647 49.4216 48.0033C50.1272 47.935 52.1036 47.6929 52.5154 48.2153C52.9292 48.7414 51.8851 51.2472 51.6944 51.6514C51.5101 52.0555 51.7648 52.1597 52.1108 51.8905C52.4522 51.6215 53.0701 50.9247 53.4847 49.9386C53.8966 48.9472 54.1477 47.5641 53.9046 47.2564H53.9047Z" fill="white"/>
<path fill-rule="evenodd" clip-rule="evenodd" d="M42.5529 37.8266C42.5529 39.2698 42.5904 40.4733 41.8387 41.7549C41.232 42.7969 40.271 43.4377 39.1972 43.4377C37.7314 43.4377 36.8777 42.354 36.8777 40.7546C36.8777 37.5973 39.793 37.0243 42.5529 37.0243V37.8266ZM46.4024 46.8555C46.15 47.0743 45.7849 47.09 45.5004 46.944C44.2333 45.9229 44.0078 45.4488 43.3099 44.4745C41.216 46.5481 39.7341 47.1681 37.0174 47.1681C33.8067 47.1681 31.3047 45.2456 31.3047 41.3954C31.3047 38.3893 32.9853 36.3418 35.3744 35.3415C37.4469 34.4557 40.3408 34.2995 42.5529 34.0547V33.5753C42.5529 32.6948 42.6226 31.6528 42.0911 30.8922C41.6239 30.2097 40.7327 29.9283 39.9488 29.9283C38.4938 29.9283 37.1945 30.6525 36.8777 32.1529C36.8132 32.4865 36.561 32.8147 36.2174 32.8303L32.5127 32.4448C32.2013 32.377 31.8578 32.1322 31.9437 31.6684C32.7973 27.313 36.8508 26 40.4802 26C42.3379 26 44.7647 26.4794 46.2305 27.8444C48.0882 29.5272 47.911 31.7726 47.911 34.2161V39.9887C47.911 41.7237 48.6519 42.4843 49.3499 43.4221C49.5968 43.7555 49.6506 44.1568 49.3391 44.4068C48.5606 45.0371 47.1754 46.2094 46.413 46.8659L46.4023 46.8555" fill="white"/>
<defs>
<clipPath id="clip0_6913_2907">
<path d="M0 40C0 17.9086 17.9086 0 40 0V0C62.0914 0 80 17.9086 80 40V40C80 62.0914 62.0914 80 40 80V80C17.9086 80 0 62.0914 0 40V40Z" fill="white"/>
</clipPath>
</defs>
</svg>
