<svg width="480" height="480" viewBox="0 0 480 480" fill="none" xmlns="http://www.w3.org/2000/svg">
<path d="M240 0C107.452 0 0 107.452 0 240C0 372.548 107.452 480 240 480C372.486 479.85 479.85 372.486 480 240C480 107.452 372.548 0 240 0ZM240 464C116.288 464 16 363.712 16 240C16 116.288 116.288 16 240 16C363.653 16.141 463.859 116.347 464 240C464 363.712 363.712 464 240 464Z" fill="#FFFAE2"/>
<path d="M200 136C195.582 136 192 139.582 192 144V336C192 340.418 195.582 344 200 344C204.418 344 208 340.418 208 336V144C208 139.582 204.418 136 200 136Z" fill="#FFFAE2"/>
<path d="M280 136C275.582 136 272 139.582 272 144V336C272 340.418 275.582 344 280 344C284.418 344 288 340.418 288 336V144C288 139.582 284.418 136 280 136Z" fill="#FFFAE2"/>
</svg>
