<svg width="54" height="40" viewBox="0 0 54 40" fill="none" xmlns="http://www.w3.org/2000/svg">
<path d="M5.773 37.099C4.79033 37.099 4.035 36.7983 3.507 36.197C2.979 35.5883 2.715 34.7267 2.715 33.612V29.3H3.65V33.579C3.65 34.2243 3.78933 34.822 4.068 35.372C4.354 35.9147 4.92233 36.186 5.773 36.186C6.609 36.186 7.16633 35.9147 7.445 35.372C7.72367 34.8293 7.863 34.2317 7.863 33.579V29.3H8.798V33.612C8.798 34.7267 8.534 35.5883 8.006 36.197C7.48533 36.7983 6.741 37.099 5.773 37.099ZM10.3768 31.203H11.3228V32.248H11.4108C11.5574 31.9107 11.7958 31.6283 12.1258 31.401C12.4558 31.1663 12.8591 31.049 13.3358 31.049C13.8271 31.049 14.2378 31.1663 14.5678 31.401C14.8978 31.6283 15.1398 31.9327 15.2938 32.314C15.4551 32.688 15.5358 33.095 15.5358 33.535V37H14.5898V33.656C14.5898 33.084 14.4394 32.6477 14.1388 32.347C13.8454 32.0463 13.4604 31.896 12.9838 31.896C12.4778 31.896 12.0744 32.061 11.7738 32.391C11.4731 32.7137 11.3228 33.1353 11.3228 33.656V37H10.3768V31.203ZM18.6293 37.044C18.1967 37.044 17.874 36.9743 17.6613 36.835C17.4487 36.6957 17.313 36.516 17.2543 36.296C17.203 36.0687 17.1773 35.7753 17.1773 35.416L17.1883 28.75H18.1343V35.273C18.1343 35.5517 18.1453 35.7607 18.1673 35.9C18.1967 36.032 18.2663 36.1383 18.3763 36.219C18.4937 36.2997 18.677 36.34 18.9263 36.34C19.0803 36.34 19.216 36.329 19.3333 36.307V36.989C19.1353 37.0257 18.9007 37.044 18.6293 37.044ZM20.6803 31.203H21.6263V37H20.6803V31.203ZM21.1423 30.125C20.9663 30.125 20.8197 30.0663 20.7023 29.949C20.585 29.8243 20.5263 29.6777 20.5263 29.509C20.5263 29.3403 20.585 29.1973 20.7023 29.08C20.8197 28.9553 20.9663 28.893 21.1423 28.893C21.3183 28.893 21.465 28.9553 21.5823 29.08C21.707 29.1973 21.7693 29.3403 21.7693 29.509C21.7693 29.6777 21.707 29.8243 21.5823 29.949C21.465 30.0663 21.3183 30.125 21.1423 30.125ZM23.3855 31.203H24.3205V32.27H24.4085C24.4232 32.1967 24.4965 32.0647 24.6285 31.874C24.7605 31.676 24.9622 31.489 25.2335 31.313C25.5049 31.137 25.8422 31.049 26.2455 31.049C26.6709 31.049 27.0229 31.148 27.3015 31.346C27.5875 31.544 27.8002 31.7567 27.9395 31.984C28.0789 32.2113 28.1485 32.3543 28.1485 32.413H28.2365C28.3392 32.1563 28.5409 31.8667 28.8415 31.544C29.1495 31.214 29.6189 31.049 30.2495 31.049C30.7189 31.049 31.1112 31.17 31.4265 31.412C31.7419 31.6467 31.9729 31.951 32.1195 32.325C32.2735 32.699 32.3505 33.0987 32.3505 33.524V37H31.4155V33.612C31.4155 33.0547 31.2689 32.633 30.9755 32.347C30.6895 32.061 30.3339 31.918 29.9085 31.918C29.4685 31.918 29.0945 32.0683 28.7865 32.369C28.4859 32.6623 28.3355 33.0767 28.3355 33.612V37H27.4005V33.612C27.4005 33.0547 27.2539 32.633 26.9605 32.347C26.6745 32.061 26.3189 31.918 25.8935 31.918C25.4535 31.918 25.0795 32.0683 24.7715 32.369C24.4709 32.6623 24.3205 33.0767 24.3205 33.612V37H23.3855V31.203ZM34.0006 31.203H34.9466V37H34.0006V31.203ZM34.4626 30.125C34.2866 30.125 34.14 30.0663 34.0226 29.949C33.9053 29.8243 33.8466 29.6777 33.8466 29.509C33.8466 29.3403 33.9053 29.1973 34.0226 29.08C34.14 28.9553 34.2866 28.893 34.4626 28.893C34.6386 28.893 34.7853 28.9553 34.9026 29.08C35.0273 29.1973 35.0896 29.3403 35.0896 29.509C35.0896 29.6777 35.0273 29.8243 34.9026 29.949C34.7853 30.0663 34.6386 30.125 34.4626 30.125ZM38.2246 31.962V35.328C38.2246 35.5993 38.2356 35.801 38.2576 35.933C38.287 36.0577 38.3566 36.1567 38.4666 36.23C38.584 36.3033 38.771 36.34 39.0276 36.34C39.2036 36.34 39.3943 36.3143 39.5996 36.263V36.945C39.5483 36.967 39.4346 36.989 39.2586 37.011C39.09 37.033 38.914 37.044 38.7306 37.044C38.3053 37.044 37.9863 36.9853 37.7736 36.868C37.5683 36.7433 37.4326 36.5783 37.3666 36.373C37.308 36.1603 37.2786 35.8817 37.2786 35.537V31.962H36.2006V31.203H37.2786V29.3H38.2246V31.203H39.5996V31.962H38.2246ZM43.434 37.077C42.84 37.077 42.3377 36.934 41.927 36.648C41.5237 36.362 41.223 35.988 41.025 35.526C40.827 35.064 40.728 34.5763 40.728 34.063C40.728 33.5423 40.827 33.0547 41.025 32.6C41.223 32.138 41.5273 31.764 41.938 31.478C42.3487 31.192 42.851 31.049 43.445 31.049C44.2223 31.049 44.842 31.3093 45.304 31.83C45.7733 32.3507 46.008 33.0987 46.008 34.074V34.338H41.674V34.415C41.674 34.7377 41.7473 35.042 41.894 35.328C42.0407 35.614 42.246 35.845 42.51 36.021C42.774 36.197 43.0783 36.285 43.423 36.285C43.797 36.285 44.1197 36.1897 44.391 35.999C44.6623 35.8083 44.864 35.5517 44.996 35.229H45.931C45.777 35.757 45.4873 36.197 45.062 36.549C44.644 36.901 44.1013 37.077 43.434 37.077ZM45.073 33.667C45.0437 33.007 44.8823 32.5303 44.589 32.237C44.2957 31.9437 43.9107 31.797 43.434 31.797C42.9133 31.797 42.499 31.9693 42.191 32.314C41.883 32.6587 41.718 33.1097 41.696 33.667H45.073ZM49.5501 37.077C49.0367 37.077 48.5967 36.945 48.2301 36.681C47.8707 36.417 47.5957 36.0577 47.4051 35.603C47.2144 35.1483 47.1191 34.635 47.1191 34.063C47.1191 33.4837 47.2144 32.9667 47.4051 32.512C47.5957 32.0573 47.8744 31.7017 48.2411 31.445C48.6077 31.181 49.0514 31.049 49.5721 31.049C50.0854 31.049 50.4997 31.1737 50.8151 31.423C51.1377 31.665 51.3761 31.951 51.5301 32.281H51.6181V28.75H52.5641V37H51.6181V35.812H51.5301C51.3541 36.164 51.1047 36.4647 50.7821 36.714C50.4667 36.956 50.0561 37.077 49.5501 37.077ZM49.8361 36.263C50.4081 36.263 50.8444 36.054 51.1451 35.636C51.4457 35.2107 51.5961 34.6863 51.5961 34.063C51.5961 33.4397 51.4457 32.919 51.1451 32.501C50.8444 32.083 50.4081 31.874 49.8361 31.874C49.2567 31.874 48.8204 32.083 48.5271 32.501C48.2337 32.919 48.0871 33.4397 48.0871 34.063C48.0871 34.6937 48.2337 35.218 48.5271 35.636C48.8277 36.054 49.2641 36.263 49.8361 36.263Z" fill="#31394F"/>
<path d="M39.6686 0.00029317C37.7407 -0.0126309 35.8332 0.4019 34.0794 1.21493C32.3257 2.02795 30.7679 3.21986 29.515 4.7074L27.549 7.00621L31.9373 12.1512L34.5255 9.11978C35.1607 8.36711 35.9499 7.764 36.8381 7.35246C37.7263 6.94091 38.6922 6.7308 39.6686 6.73676C40.5446 6.72266 41.4145 6.88562 42.2278 7.21614C43.0411 7.54666 43.7815 8.03813 44.4058 8.66194C45.0302 9.28575 45.526 10.0294 45.8645 10.8497C46.2029 11.6699 46.3773 12.5503 46.3773 13.4395C46.3773 14.3288 46.2029 15.2092 45.8645 16.0294C45.526 16.8497 45.0302 17.5933 44.4058 18.2171C43.7815 18.8409 43.0411 19.3324 42.2278 19.6629C41.4145 19.9935 40.5446 20.1564 39.6686 20.1423C38.6954 20.1488 37.7325 19.9398 36.847 19.5296C35.9616 19.1195 35.175 18.5182 34.5421 17.7677C24.931 6.50266 29.4976 11.8733 23.393 4.69898C22.1385 3.21404 20.5802 2.02444 18.8267 1.21299C17.0732 0.401527 15.1666 -0.0123037 13.2395 0.00029317C9.72814 0.00029317 6.36063 1.41621 3.87775 3.93656C1.39487 6.4569 0 9.87523 0 13.4395C0 17.0038 1.39487 20.4222 3.87775 22.9425C6.36063 25.4629 9.72814 26.8788 13.2395 26.8788C15.1674 26.8917 17.0749 26.4772 18.8287 25.6641C20.5824 24.8511 22.1401 23.6592 23.393 22.1717L25.359 19.8729L20.9708 14.7279L18.3826 17.7593C17.7474 18.512 16.9582 19.1151 16.07 19.5266C15.1817 19.9382 14.2158 20.1483 13.2395 20.1423C12.3635 20.1564 11.4936 19.9935 10.6803 19.6629C9.86697 19.3324 9.12659 18.8409 8.50223 18.2171C7.87788 17.5933 7.38204 16.8497 7.04358 16.0294C6.70513 15.2092 6.53082 14.3288 6.53082 13.4395C6.53082 12.5503 6.70513 11.6699 7.04358 10.8497C7.38204 10.0294 7.87788 9.28575 8.50223 8.66194C9.12659 8.03813 9.86697 7.54666 10.6803 7.21614C11.4936 6.88562 12.3635 6.72266 13.2395 6.73676C14.2127 6.73022 15.1756 6.93931 16.061 7.34944C16.9465 7.75957 17.7331 8.36086 18.366 9.11136C27.9771 20.3764 23.4105 15.0058 29.515 22.1801C30.9536 23.9196 32.8013 25.2625 34.887 26.0846C36.9727 26.9067 39.229 27.1813 41.447 26.8831C43.665 26.5849 45.7731 25.7235 47.576 24.3786C49.379 23.0337 50.8185 21.2488 51.7614 19.1892C52.7043 17.1295 53.12 14.8617 52.9701 12.5956C52.8202 10.3296 52.1095 8.13852 50.9038 6.22532C49.6981 4.31213 48.0364 2.73864 46.0725 1.65051C44.1086 0.562382 41.906 -0.00520493 39.6686 0.00029317Z" fill="#31394F"/>
</svg>
