<svg width="106" height="142" viewBox="0 0 106 142" fill="none" xmlns="http://www.w3.org/2000/svg">
<path d="M65.2779 65.2639C71.2252 59.3166 72.0935 50.1856 67.88 43.3115L43.3254 67.8661C50.1995 72.0795 59.3306 71.2112 65.2779 65.2639Z" fill="#31394F"/>
<path d="M61.98 37.4059C45.7617 27.8593 27.9008 45.8648 37.4226 61.9632L61.98 37.4059Z" fill="#31394F"/>
<path d="M92.6932 18.4982L73.8968 37.2946C90.7034 61.8149 61.9228 90.7168 37.3085 73.8829L14.6213 96.57C17.6604 101.591 21.1614 106.711 25.091 111.893C40.4627 131.557 47.58 137.188 52.6512 142C80.1126 117.103 128.087 59.8076 92.6932 18.4982Z" fill="#31394F"/>
<path d="M31.4057 67.9801C14.5092 43.5436 43.5777 14.5037 67.994 31.389C72.1749 27.209 82.7698 16.6165 86.7904 12.5953C53.3197 -16.4179 -0.176809 7.93046 0.0052 52.6382C-0.17013 63.4739 4.10458 77.3736 10.3577 89.0255C11.9031 87.4799 31.4057 67.9801 31.4057 67.9801Z" fill="#31394F"/>
<path d="M0.138428 99.2445L6.0412 105.15L14.6212 96.57C13.0794 94.0263 11.6573 91.5105 10.3577 89.0253L0.138428 99.2445Z" fill="#31394F"/>
<path d="M92.6933 18.4981L105.164 6.02741L99.2612 0.124634L86.7905 12.5953C88.9112 14.4015 90.8871 16.3774 92.6933 18.4981Z" fill="#31394F"/>
</svg>
