<svg width="19" height="18" viewBox="0 0 19 18" fill="none" xmlns="http://www.w3.org/2000/svg">
<path d="M4.52992 7.50049C4.18908 7.50049 3.90137 7.87592 3.90137 8.31981C3.90137 8.76407 4.18904 9.1395 4.52992 9.1395C4.87075 9.1395 5.15879 8.76407 5.15879 8.31981C5.15879 7.87592 4.87075 7.50049 4.52992 7.50049Z" fill="#FFFAE2"/>
<path d="M10.0416 11.8337C9.7008 11.8337 9.41309 12.2092 9.41309 12.6534C9.41309 13.0973 9.70076 13.4728 10.0416 13.4728C10.3825 13.4728 10.6705 13.0973 10.6705 12.6534C10.6705 12.2092 10.3825 11.8337 10.0416 11.8337Z" fill="#FFFAE2"/>
<path d="M13.6136 5.19565C8.07555 0.099894 8.35882 0.294529 7.91853 0.123491C7.29282 -0.12471 6.54829 0.00507111 6.03401 0.478167L0.907119 5.19565C0.330643 5.72585 0 6.48035 0 7.26617V15.62C0 16.6043 0.796784 17.4054 1.77597 17.4054H12.7443C13.7235 17.4054 14.5203 16.6043 14.5203 15.62V7.26617C14.5203 6.48035 14.1896 5.72585 13.6136 5.19565ZM6.73175 3.40479C6.76485 3.08733 7.05602 2.86189 7.38178 2.92303C7.69334 2.98799 7.86882 3.28695 7.81074 3.56538C7.74902 3.86201 7.46998 4.05097 7.16839 3.99434C6.88036 3.93426 6.70455 3.67258 6.73175 3.40479ZM2.80872 8.32001C2.80872 7.26581 3.58074 6.40825 4.52973 6.40825C5.47909 6.40825 6.25108 7.26581 6.25108 8.32001C6.25108 9.3742 5.47906 10.2321 4.52973 10.2321C3.58074 10.2321 2.80872 9.3742 2.80872 8.32001ZM5.9401 14.1339C5.55411 14.1339 5.28471 13.7382 5.43685 13.3761L8.0959 7.03858C8.21279 6.76038 8.53288 6.62929 8.81108 6.74618C9.08929 6.8627 9.22002 7.18315 9.10349 7.46136L6.44407 13.7989C6.35632 14.0079 6.15385 14.1339 5.9401 14.1339ZM10.0416 14.5651C9.09257 14.5651 8.32058 13.7075 8.32058 12.6533C8.32058 11.5991 9.0926 10.7412 10.0416 10.7412C10.9906 10.7412 11.7629 11.5991 11.7629 12.6533C11.7629 13.7075 10.9906 14.5651 10.0416 14.5651Z" fill="#FFFAE2"/>
<path d="M18.5069 11.1945C16.7284 6.01732 15.7406 3.13883 15.7266 3.10613C15.4174 2.39022 14.8165 1.83345 14.0788 1.57891C14.0364 1.56453 14.2862 1.62519 10.3247 0.685303L14.3526 4.39156C15.1534 5.12786 15.6126 6.1755 15.6126 7.26611V14.3451L17.5776 13.5039C18.4665 13.1194 18.8798 12.087 18.5069 11.1945Z" fill="#FFFAE2"/>
</svg>
