<svg width="16" height="16" viewBox="0 0 16 16" fill="none" xmlns="http://www.w3.org/2000/svg">
<path d="M14.2507 10.3423L9.81421 5.65753V2.27167C10.0855 2.20076 10.3218 2.03352 10.4788 1.80117C10.6359 1.56883 10.703 1.28726 10.6676 1.00905C10.6323 0.730847 10.4969 0.475016 10.2867 0.289331C10.0766 0.103645 9.806 0.000800785 9.52556 0H5.19582C4.93731 0.000208637 4.68635 0.0871624 4.48313 0.246936C4.27991 0.406709 4.13619 0.630058 4.07498 0.881213C4.01377 1.13237 4.03862 1.3968 4.14554 1.63216C4.25246 1.86751 4.43528 2.06018 4.6647 2.1793C4.97067 2.63826 4.90717 1.20655 4.90717 5.6633L0.70443 10.3596C-0.851391 12.1031 0.31764 15.0098 2.76539 15.0098H12.2446C12.7846 15.0083 13.3123 14.8489 13.7628 14.5513C14.2133 14.2537 14.567 13.8308 14.7802 13.3347C14.9934 12.8386 15.0569 12.2911 14.9628 11.7594C14.8687 11.2277 14.6212 10.7351 14.2507 10.3423ZM12.2446 14.4325H2.76539C0.817003 14.4325 -0.0922424 12.1233 1.13452 10.7435C5.71827 5.62578 5.48446 5.9404 5.48446 5.77299V2.3092H8.37096C8.44751 2.3092 8.52093 2.27878 8.57506 2.22465C8.6292 2.17052 8.65961 2.0971 8.65961 2.02055C8.65961 1.94399 8.6292 1.87057 8.57506 1.81644C8.52093 1.76231 8.44751 1.7319 8.37096 1.7319H5.19582C5.04271 1.7319 4.89587 1.67107 4.7876 1.56281C4.67934 1.45454 4.61852 1.30771 4.61852 1.1546C4.61852 1.00149 4.67934 0.85465 4.7876 0.746386C4.89587 0.638121 5.04271 0.577299 5.19582 0.577299H9.52556C9.67867 0.577299 9.8255 0.638121 9.93377 0.746386C10.042 0.85465 10.1029 1.00149 10.1029 1.1546C10.1029 1.30771 10.042 1.45454 9.93377 1.56281C9.8255 1.67107 9.67867 1.7319 9.52556 1.7319C9.449 1.7319 9.37558 1.76231 9.32145 1.81644C9.26732 1.87057 9.23691 1.94399 9.23691 2.02055V5.77299C9.23691 5.9404 8.91939 5.55361 13.8322 10.7406C14.1247 11.0516 14.3199 11.4412 14.394 11.8616C14.468 12.2821 14.4176 12.715 14.249 13.1071C14.0803 13.4993 13.8008 13.8336 13.4447 14.0691C13.0886 14.3046 12.6715 14.4309 12.2446 14.4325Z" fill="#31394F"/>
<path d="M13.414 11.1359C10.7931 8.36774 10.9894 8.53804 10.8739 8.50918C7.50826 7.47293 7.34084 10.1372 3.89148 8.79783C3.83716 8.77685 3.77777 8.7728 3.7211 8.78619C3.66443 8.79958 3.61314 8.8298 3.57396 8.87288L1.56785 11.1157C1.35475 11.3494 1.21394 11.6399 1.16246 11.9519C1.11097 12.264 1.15101 12.5843 1.27774 12.8741C1.40446 13.1639 1.61245 13.4108 1.87652 13.5848C2.1406 13.7589 2.44946 13.8527 2.76575 13.855H12.245C12.5594 13.8537 12.8666 13.7607 13.1288 13.5873C13.391 13.4138 13.5969 13.1676 13.7211 12.8787C13.8453 12.5899 13.8824 12.2711 13.8278 11.9615C13.7733 11.6518 13.6294 11.3649 13.414 11.1359ZM10.9692 11.5458C10.9692 11.7741 10.9014 11.9974 10.7746 12.1872C10.6477 12.3771 10.4674 12.5251 10.2564 12.6125C10.0454 12.6999 9.81328 12.7227 9.58931 12.6782C9.36534 12.6336 9.15961 12.5237 8.99814 12.3622C8.83667 12.2007 8.7267 11.995 8.68215 11.771C8.6376 11.5471 8.66047 11.3149 8.74786 11.1039C8.83524 10.8929 8.98323 10.7126 9.1731 10.5858C9.36298 10.4589 9.58621 10.3912 9.81456 10.3912C10.1208 10.3912 10.4145 10.5128 10.631 10.7293C10.8475 10.9459 10.9692 11.2396 10.9692 11.5458ZM5.48482 11.6901C5.48482 11.8328 5.4425 11.9723 5.36321 12.091C5.28391 12.2097 5.17121 12.3022 5.03935 12.3568C4.90749 12.4114 4.7624 12.4257 4.62242 12.3979C4.48244 12.37 4.35386 12.3013 4.25293 12.2004C4.15201 12.0994 4.08329 11.9709 4.05544 11.8309C4.0276 11.6909 4.04189 11.5458 4.09651 11.4139C4.15112 11.2821 4.24362 11.1694 4.36229 11.0901C4.48096 11.0108 4.62048 10.9685 4.7632 10.9685C4.95459 10.9685 5.13813 11.0445 5.27346 11.1798C5.40879 11.3152 5.48482 11.4987 5.48482 11.6901Z" fill="#31394F"/>
<path d="M6.49485 8.22653C6.9731 8.22653 7.3608 7.83883 7.3608 7.36058C7.3608 6.88233 6.9731 6.49463 6.49485 6.49463C6.0166 6.49463 5.62891 6.88233 5.62891 7.36058C5.62891 7.83883 6.0166 8.22653 6.49485 8.22653Z" fill="#31394F"/>
</svg>
