<svg width="132" height="131" viewBox="0 0 132 131" fill="none" xmlns="http://www.w3.org/2000/svg">
<path d="M15.9467 0.0136233C15.5362 0.0514966 15.145 0.205733 14.819 0.458082C14.493 0.710432 14.2458 1.05033 14.1063 1.43824C13.9667 1.82616 13.9407 2.24596 14.0313 2.64813C14.1218 3.0503 14.3252 3.41836 14.6175 3.70903L29.1619 18.2364V22.956L23.93 28.188H19.2272L4.68283 13.6436C4.37922 13.3419 3.99308 13.1367 3.57308 13.0542C3.15308 12.9716 2.71803 13.0153 2.3228 13.1797C1.92756 13.344 1.58983 13.6218 1.35219 13.9778C1.11456 14.3338 0.987648 14.7522 0.987474 15.1802V32.5226C0.992056 33.0936 1.22175 33.6396 1.62665 34.0422L12.4587 44.887C12.6612 45.0872 12.901 45.2457 13.1647 45.3532C13.4283 45.4607 13.7106 45.5153 13.9953 45.5137H30.4276L49.0356 64.1217L65.1081 48.0534L46.5043 29.4496V13.0047C46.4997 12.4337 46.27 11.8876 45.8651 11.4851L35.033 0.636066C34.6236 0.233132 34.0709 0.00906392 33.4965 0.0133733H16.1541C16.085 0.0100633 16.0158 0.0100633 15.9467 0.0133733L15.9467 0.0136233ZM122.113 0.0136233C121.856 0.0463883 121.607 0.120149 121.377 0.238103L99.7166 11.0659C98.9825 11.432 98.5158 12.1843 98.5145 13.0047V20.7805L49.5689 69.7259L61.2984 81.4681L110.244 32.5226H118.02C118.84 32.5212 119.588 32.0541 119.954 31.3205L130.799 9.64373C131.211 8.8088 131.044 7.8025 130.384 7.14621L123.891 0.635816C123.425 0.168096 122.769 -0.0595287 122.113 0.0133733V0.0136233ZM82.9796 65.9248L66.9071 81.9973L85.5066 100.597V117.042C85.5072 117.328 85.5644 117.611 85.6748 117.874C85.7853 118.138 85.9468 118.377 86.1501 118.578L96.9779 129.41C97.1793 129.613 97.4188 129.773 97.6824 129.883C97.9461 129.993 98.2289 130.049 98.5145 130.049H115.857C116.287 130.049 116.707 129.921 117.064 129.681C117.421 129.442 117.699 129.101 117.862 128.703C118.025 128.305 118.066 127.867 117.979 127.446C117.893 127.025 117.683 126.639 117.376 126.337L102.853 111.81V107.107L108.081 101.858H112.788L127.328 116.403C127.632 116.704 128.018 116.909 128.438 116.992C128.858 117.075 129.293 117.031 129.688 116.867C130.083 116.702 130.421 116.424 130.659 116.068C130.896 115.712 131.023 115.294 131.023 114.866V97.5406C131.023 97.255 130.967 96.9721 130.857 96.7084C130.748 96.4447 130.587 96.2054 130.384 96.004L119.552 85.155C119.143 84.7521 118.59 84.5282 118.016 84.5326H101.588L82.9796 65.9248ZM42.1359 69.3492C41.5709 69.3581 41.0317 69.5874 40.6332 69.9882L35.6595 74.9619L56.0623 95.3561L61.0318 90.3868C61.4355 89.9807 61.6621 89.4313 61.6621 88.8587C61.6621 88.286 61.4355 87.7367 61.0318 87.3305L43.7063 69.9882C43.5009 69.7816 43.256 69.6185 42.9862 69.5087C42.7164 69.3989 42.4272 69.3447 42.1359 69.3492ZM32.5991 78.0224L5.59715 105.029C-0.279801 110.906 -0.625464 120.292 5.0511 125.969C10.7277 131.646 20.1187 131.3 25.9957 125.423L52.9934 98.4253L32.5991 78.0224Z" fill="#31394F"/>
</svg>
