<svg width="15" height="15" viewBox="0 0 15 15" fill="none" xmlns="http://www.w3.org/2000/svg">
<path d="M12.3212 7.49997C12.0254 7.49997 11.7855 7.73982 11.7855 8.0357V13.3928C11.7855 13.6887 11.5457 13.9285 11.2498 13.9285H1.60712C1.31125 13.9285 1.0714 13.6887 1.0714 13.3928V2.67855C1.0714 2.38267 1.31125 2.14283 1.60712 2.14283H8.0356C8.33147 2.14283 8.57131 1.90298 8.57131 1.6071C8.57131 1.31123 8.33147 1.07141 8.0356 1.07141H1.60712C0.719531 1.07141 0 1.79095 0 2.67855V13.3928C0 14.2804 0.719531 15 1.60712 15H11.2498C12.1374 15 12.857 14.2804 12.857 13.3928V8.03567C12.857 7.73982 12.6171 7.49997 12.3212 7.49997Z" fill="#16CFA3"/>
<path d="M14.3993 0.60074C14.0147 0.216031 13.493 -5.43034e-05 12.949 8.47551e-06C12.4046 -0.001561 11.8824 0.214901 11.4988 0.601085L4.44246 7.65693C4.38392 7.71591 4.33976 7.78761 4.31336 7.86639L3.24196 11.0807C3.14845 11.3614 3.30022 11.6647 3.58093 11.7582C3.63539 11.7764 3.69242 11.7856 3.7498 11.7857C3.80731 11.7856 3.86447 11.7764 3.91908 11.7584L7.13332 10.687C7.21226 10.6606 7.28399 10.6162 7.34278 10.5573L14.3991 3.50091C15.2 2.7001 15.2001 1.40164 14.3993 0.60074ZM13.6416 2.74392L6.67743 9.7082L4.59674 10.403L5.2894 8.32496L12.2563 1.36071C12.6393 0.978449 13.2597 0.979077 13.6419 1.36209C13.8245 1.54506 13.9274 1.79275 13.9282 2.05125C13.9289 2.31112 13.8257 2.56048 13.6416 2.74392Z" fill="#16CFA3"/>
</svg>
