<svg width="25" height="25" viewBox="0 0 25 25" fill="none" xmlns="http://www.w3.org/2000/svg">
<path d="M10.6771 11.7187H0.78125C0.349998 11.7187 0 11.3688 0 10.9375C0 10.5062 0.349998 10.1562 0.78125 10.1562H10.6771C11.1084 10.1562 11.4584 10.5062 11.4584 10.9375C11.4584 11.3688 11.1084 11.7187 10.6771 11.7187Z" fill="#31394F"/>
<path d="M6.77093 15.625C6.57085 15.625 6.37096 15.5489 6.21875 15.396C5.91357 15.0906 5.91357 14.5958 6.21875 14.2906L9.57301 10.9366L6.21875 7.58346C5.91357 7.27809 5.91357 6.78333 6.21875 6.47815C6.52393 6.17297 7.01869 6.17297 7.32406 6.47815L11.2303 10.3844C11.5355 10.6896 11.5355 11.1843 11.2303 11.4897L7.32406 15.396C7.1709 15.5489 6.97082 15.625 6.77093 15.625Z" fill="#31394F"/>
<path d="M16.6667 25C15.5177 25 14.5835 24.0656 14.5835 22.9166V4.16658C14.5835 3.27604 15.1502 2.48125 15.9938 2.18847L22.2522 0.102025C23.6522 -0.327128 25.0001 0.711423 25.0001 2.08338V20.8334C25.0001 21.723 24.4334 22.5166 23.5908 22.8103L17.3303 24.8979C17.1021 24.9687 16.8908 25 16.6667 25ZM22.9167 1.56248C22.849 1.56248 22.7918 1.57087 22.7304 1.58957L16.4981 3.66762C16.2938 3.73857 16.146 3.94476 16.146 4.16658V22.9166C16.146 23.2719 16.5313 23.5115 16.8532 23.4104L23.0855 21.3323C23.2886 21.2614 23.4376 21.0552 23.4376 20.8334V2.08338C23.4376 1.79689 23.2043 1.56248 22.9167 1.56248Z" fill="#31394F"/>
<path d="M9.11462 5.2084C8.68337 5.2084 8.33337 4.8584 8.33337 4.42715V2.86465C8.33337 1.28441 9.61759 0 11.1978 0H22.9166C23.3478 0 23.6978 0.349998 23.6978 0.78125C23.6978 1.2125 23.3478 1.5625 22.9166 1.5625H11.1978C10.4801 1.5625 9.89587 2.14691 9.89587 2.86465V4.42715C9.89587 4.8584 9.54588 5.2084 9.11462 5.2084Z" fill="#31394F"/>
<path d="M15.3646 21.875H11.1978C9.61759 21.875 8.33337 20.5906 8.33337 19.0103V17.4478C8.33337 17.0166 8.68337 16.6666 9.11462 16.6666C9.54588 16.6666 9.89587 17.0166 9.89587 17.4478V19.0103C9.89587 19.728 10.4801 20.3125 11.1978 20.3125H15.3646C15.7959 20.3125 16.1459 20.6625 16.1459 21.0937C16.1459 21.525 15.7959 21.875 15.3646 21.875Z" fill="#31394F"/>
</svg>
