<svg
  width="20"
  height="20"
  viewBox="0 0 20 20"
  fill="none"
  xmlns="http://www.w3.org/2000/svg"
>
  <path
    d="M11.1726 10.0052L19.7458 1.43203C20.0767 1.11246 20.0858 0.585186 19.7663 0.254296C19.4467 -0.0765925 18.9194 -0.0857676 18.5886 0.233799C18.5816 0.240485 18.5748 0.247318 18.5681 0.254296L9.99481 8.82749L1.42161 0.254248C1.09073 -0.0653188 0.563451 -0.0561438 0.243884 0.274745C-0.0678737 0.597533 -0.0678737 1.10924 0.243884 1.43203L8.81708 10.0052L0.243884 18.5784C-0.0812948 18.9037 -0.0812948 19.4309 0.243884 19.7562C0.569112 20.0813 1.09639 20.0813 1.42161 19.7562L9.99481 11.183L18.568 19.7562C18.8989 20.0757 19.4262 20.0665 19.7457 19.7357C20.0574 19.4129 20.0574 18.9012 19.7457 18.5784L11.1726 10.0052Z"
    fill="#FFFAE2"
  />
</svg>
