<svg width="80" height="80" viewBox="0 0 80 80" fill="none" xmlns="http://www.w3.org/2000/svg">
<g clip-path="url(#clip0_6837_5602)">
<path d="M0 40C0 17.9086 17.9086 0 40 0C62.0914 0 80 17.9086 80 40C80 62.0914 62.0914 80 40 80C17.9086 80 0 62.0914 0 40Z" fill="#31394F"/>
<path d="M48.9336 42.25L50.0001 35.7348H43.3318V31.507C43.3318 29.7245 44.2633 27.9871 47.2498 27.9871H50.2813V22.4402C50.2813 22.4402 47.5303 22 44.9001 22C39.4086 22 35.8191 25.1205 35.8191 30.7694V35.7348H29.7148V42.25H35.8191V58H43.3318V42.25H48.9336Z" fill="white"/>
</g>
<defs>
<clipPath id="clip0_6837_5602">
<path d="M0 40C0 17.9086 17.9086 0 40 0C62.0914 0 80 17.9086 80 40C80 62.0914 62.0914 80 40 80C17.9086 80 0 62.0914 0 40Z" fill="white"/>
</clipPath>
</defs>
</svg>
