<svg width="27" height="21" viewBox="0 0 27 21" fill="none" xmlns="http://www.w3.org/2000/svg">
<path d="M4.13054 0C4.12981 0 4.129 0 4.12827 0C3.8729 0 3.63272 0.0995457 3.45136 0.280455C3.26799 0.463365 3.16699 0.706911 3.16699 0.966185V15.454C3.16699 15.9852 3.6009 16.4185 4.13436 16.4199C6.38328 16.4252 10.1511 16.894 12.7504 19.6141V4.4522C12.7504 4.27211 12.7044 4.10292 12.6176 3.96292C10.4842 0.527274 6.38455 0.00527275 4.13054 0Z" fill="#16CFA3"/>
<path d="M23.8333 15.4541V0.966185C23.8333 0.706911 23.7323 0.463365 23.5489 0.280455C23.3676 0.0995457 23.1272 0 22.8721 0C22.8713 0 22.8705 0 22.8698 0C20.6158 0.00536365 16.5162 0.527365 14.3827 3.96301C14.2959 4.10301 14.25 4.2722 14.25 4.45229V19.6141C16.8493 16.894 20.6171 16.4252 22.866 16.4199C23.3994 16.4185 23.8333 15.9852 23.8333 15.4541Z" fill="#16CFA3"/>
<path d="M26.0345 3.34131H25.334V15.4542C25.334 16.8106 24.2288 17.9167 22.8702 17.9201C20.9627 17.9246 17.8174 18.2976 15.5898 20.4059C19.4424 19.4626 23.5037 20.0758 25.8182 20.6033C26.1072 20.6691 26.4059 20.6011 26.6374 20.4165C26.8682 20.2325 27.0005 19.9573 27.0005 19.6619V4.30731C27.0006 3.77467 26.5672 3.34131 26.0345 3.34131Z" fill="#16CFA3"/>
<path d="M1.66655 15.4542V3.34131H0.966003C0.433456 3.34131 0 3.77467 0 4.30731V19.6616C0 19.9571 0.132364 20.2322 0.363092 20.4163C0.594457 20.6007 0.892821 20.669 1.18228 20.603C3.49683 20.0755 7.55821 19.4624 11.4106 20.4056C9.18312 18.2974 6.03784 17.9245 4.13029 17.92C2.77183 17.9167 1.66655 16.8106 1.66655 15.4542Z" fill="#16CFA3"/>
</svg>
