<svg width="70" height="93" viewBox="0 0 70 93" fill="none" xmlns="http://www.w3.org/2000/svg">
<path d="M61.0312 37.7812V26.1562C61.0312 11.625 49.4062 0 34.875 0C20.3438 0 8.71875 11.625 8.71875 26.1562V37.7812C3.77812 37.7812 0 41.5594 0 46.5V84.2812C0 88.9313 3.77812 93 8.71875 93H61.0312C65.9719 93 69.75 88.9313 69.75 84.2812V46.5C69.75 41.5594 65.9719 37.7812 61.0312 37.7812ZM14.5312 26.1562C14.5312 14.8219 23.5406 5.8125 34.875 5.8125C46.2094 5.8125 55.2188 14.8219 55.2188 26.1562V37.7812H14.5312V26.1562ZM37.7812 69.1687V75.5625C37.7812 77.3063 36.6188 78.4688 34.875 78.4688C33.1312 78.4688 31.9688 77.3063 31.9688 75.5625V69.1687C28.4813 68.0062 26.1562 64.8094 26.1562 61.0312C26.1562 56.0906 29.9344 52.3125 34.875 52.3125C39.8156 52.3125 43.5938 56.0906 43.5938 61.0312C43.5938 64.8094 41.2687 68.0062 37.7812 69.1687Z" fill="#FFFAE2"/>
</svg>
