<svg width="15" height="15" viewBox="0 0 15 15" fill="none" xmlns="http://www.w3.org/2000/svg">
<path d="M7.5 0C3.3544 0 0 3.35476 0 7.5C0 11.6456 3.35476 15 7.5 15C11.6456 15 15 11.6452 15 7.5C15 3.3544 11.6452 0 7.5 0ZM7.5 14C3.91591 14 0.99999 11.0841 0.99999 7.5C0.99999 3.91588 3.91591 0.99999 7.5 0.99999C11.0841 0.99999 14 3.91591 14 7.5C14 11.0841 11.0841 14 7.5 14Z" fill="#FFFAE2"/>
<path d="M11.4702 4.74398C11.2749 4.54872 10.9583 4.54872 10.7631 4.74398L6.31178 9.19526L4.23698 7.12049C4.04172 6.92522 3.7251 6.92522 3.52987 7.12049C3.33461 7.31575 3.33461 7.63233 3.52987 7.8276L5.9582 10.2559C6.15344 10.4512 6.47013 10.4511 6.66531 10.2559L11.4702 5.45106C11.6654 5.2558 11.6654 4.93925 11.4702 4.74398Z" fill="#FFFAE2"/>
</svg>
