<svg width="80" height="80" viewBox="0 0 80 80" fill="none" xmlns="http://www.w3.org/2000/svg">
<g clip-path="url(#clip0_6879_7416)">
<path d="M0 40C0 17.9086 17.9086 0 40 0C62.0914 0 80 17.9086 80 40C80 62.0914 62.0914 80 40 80C17.9086 80 0 62.0914 0 40Z" fill="#31394F"/>
<path d="M51.7915 47.928C51.3837 48.8886 50.8799 49.8046 50.288 50.6618C49.4972 51.8032 48.8478 52.592 48.3501 53.031C47.577 53.7483 46.7465 54.1174 45.8585 54.1382C45.2224 54.1382 44.4537 53.9552 43.5584 53.5831C42.6601 53.2126 41.8354 53.031 41.08 53.031C40.2892 53.031 39.441 53.2126 38.5325 53.5831C37.6254 53.9552 36.892 54.1501 36.331 54.168C35.4813 54.2052 34.6316 53.8272 33.7849 53.031C33.2445 52.5548 32.5686 51.7363 31.7572 50.5784C30.8884 49.3447 30.1742 47.9086 29.6146 46.2761C29.0152 44.5096 28.7148 42.8011 28.7148 41.1462C28.7148 39.2518 29.1198 37.6162 29.9312 36.2471C30.5449 35.1718 31.4222 34.2744 32.4787 33.6413C33.5205 33.0098 34.7098 32.6697 35.9245 32.6561C36.6019 32.6561 37.4899 32.8674 38.5899 33.2841C39.6899 33.7008 40.3967 33.9121 40.7045 33.9121C40.9372 33.9121 41.7191 33.6636 43.0503 33.171C44.3064 32.7141 45.3667 32.5251 46.2355 32.5995C48.5916 32.7915 50.3602 33.7291 51.5367 35.4197C49.431 36.7099 48.3899 38.5151 48.4105 40.8322C48.4281 42.6374 49.0775 44.139 50.3498 45.3311C50.9123 45.875 51.5686 46.3103 52.2863 46.6154C52.1302 47.0723 51.9653 47.5083 51.7915 47.928ZM46.3916 26.4518C46.3916 27.8656 45.8791 29.1871 44.8616 30.4089C43.6305 31.8614 42.1432 32.7022 40.5307 32.5698C40.5097 32.392 40.4993 32.2131 40.4998 32.034C40.4998 30.6753 41.083 29.2228 42.1241 28.0337C42.6424 27.4325 43.3021 26.931 44.1017 26.5321C44.8999 26.1392 45.6538 25.922 46.3636 25.8848C46.3827 26.0753 46.3916 26.2643 46.3916 26.4518Z" fill="white"/>
</g>
<defs>
<clipPath id="clip0_6879_7416">
<path d="M0 40C0 17.9086 17.9086 0 40 0C62.0914 0 80 17.9086 80 40C80 62.0914 62.0914 80 40 80C17.9086 80 0 62.0914 0 40Z" fill="white"/>
</clipPath>
</defs>
</svg>
