<svg width="10" height="10" viewBox="0 0 10 10" fill="none" xmlns="http://www.w3.org/2000/svg">
<path d="M5 10C4.01109 10 3.0444 9.70676 2.22215 9.15735C1.3999 8.60794 0.759043 7.82705 0.380604 6.91342C0.00216642 5.99979 -0.0968502 4.99445 0.0960758 4.02455C0.289002 3.05464 0.765206 2.16373 1.46447 1.46447C2.16373 0.765206 3.05464 0.289002 4.02455 0.0960758C4.99445 -0.0968502 5.99979 0.00216642 6.91342 0.380604C7.82705 0.759043 8.60794 1.3999 9.15735 2.22215C9.70676 3.0444 10 4.01109 10 5C9.99852 6.32563 9.47126 7.59654 8.5339 8.5339C7.59654 9.47126 6.32563 9.99852 5 10ZM5 0.697676C4.14908 0.697676 3.31727 0.950003 2.60976 1.42275C1.90224 1.89549 1.3508 2.56743 1.02517 3.35357C0.699539 4.13972 0.614338 5.00477 0.780344 5.83934C0.946351 6.67391 1.35611 7.44051 1.9578 8.0422C2.55949 8.64389 3.32609 9.05365 4.16066 9.21966C4.99523 9.38566 5.86028 9.30046 6.64643 8.97483C7.43258 8.6492 8.10451 8.09776 8.57725 7.39024C9.05 6.68273 9.30233 5.85092 9.30233 5C9.30109 3.85933 8.84742 2.76573 8.04084 1.95916C7.23427 1.15258 6.14067 0.698908 5 0.697676Z" fill="black"/>
<path d="M4.99972 7.20929C4.9072 7.20929 4.81847 7.17254 4.75305 7.10712C4.68763 7.0417 4.65088 6.95297 4.65088 6.86045V4.53487C4.65088 4.44235 4.68763 4.35363 4.75305 4.28821C4.81847 4.22279 4.9072 4.18604 4.99972 4.18604C5.09223 4.18604 5.18096 4.22279 5.24638 4.28821C5.3118 4.35363 5.34855 4.44235 5.34855 4.53487V6.86045C5.34855 6.95297 5.3118 7.0417 5.24638 7.10712C5.18096 7.17254 5.09223 7.20929 4.99972 7.20929Z" fill="black"/>
<path d="M5.00027 3.60455C5.25715 3.60455 5.46539 3.39631 5.46539 3.13943C5.46539 2.88256 5.25715 2.67432 5.00027 2.67432C4.7434 2.67432 4.53516 2.88256 4.53516 3.13943C4.53516 3.39631 4.7434 3.60455 5.00027 3.60455Z" fill="black"/>
</svg>
