<svg width="124" height="125" viewBox="0 0 124 125" fill="none" xmlns="http://www.w3.org/2000/svg">
<path d="M111.672 27.9119H88.3714C85.6666 19.0397 81.87 11.5607 77.3566 6.24067C75.5642 4.12243 73.6659 2.36266 71.6943 0.977661C88.0048 4.04096 102.604 13.7604 111.672 27.9119Z" fill="#31394F"/>
<path d="M121.18 59.1722H92.9419C92.836 49.1839 91.5324 39.3911 89.1616 30.6493H113.326C118.255 39.3259 120.96 49.1431 121.18 59.1722Z" fill="#31394F"/>
<path d="M92.942 61.9096H121.18C121.066 67.1482 120.284 72.3053 118.85 77.2994C118.491 76.8921 118.116 76.501 117.725 76.11C114.972 73.3481 111.754 71.1891 108.177 69.6738C104.47 68.1095 100.535 67.3111 96.486 67.3111C95.2313 67.3111 93.9848 67.3844 92.7546 67.5392C92.8606 65.6817 92.9257 63.7916 92.942 61.9096Z" fill="#31394F"/>
<path d="M96.4941 70.0567C111.542 70.0567 123.787 82.3018 123.787 97.3494C123.787 112.397 111.542 124.642 96.4941 124.642C81.4465 124.642 69.2014 112.397 69.2014 97.3494C69.2014 82.3018 81.4383 70.0567 96.4941 70.0567ZM107.485 88.3061C108.022 87.7684 108.022 86.9048 107.485 86.3671C106.947 85.8294 106.083 85.8294 105.546 86.3671L96.4941 95.4185L87.4427 86.3671C86.905 85.8294 86.0414 85.8294 85.5037 86.3671C84.966 86.9048 84.966 87.7684 85.5037 88.3061L94.5551 97.3575L85.5037 106.409C84.966 106.947 84.966 107.81 85.5037 108.348C85.7726 108.617 86.1229 108.747 86.4732 108.747C86.8235 108.747 87.1739 108.617 87.4427 108.348L96.4941 99.2966L105.546 108.348C105.814 108.617 106.165 108.747 106.515 108.747C106.865 108.747 107.216 108.617 107.485 108.348C108.022 107.81 108.022 106.947 107.485 106.409L98.4331 97.3575L107.485 88.3061Z" fill="#31394F"/>
<path d="M75.2547 118.597C75.4583 118.801 75.6702 119.004 75.882 119.208C71.3522 120.389 66.684 121.033 61.9668 121.139V93.1781H66.7491C66.5536 94.5549 66.464 95.9481 66.464 97.3575C66.464 101.415 67.2542 105.35 68.8266 109.049C70.3257 112.625 72.4928 115.835 75.2547 118.597Z" fill="#31394F"/>
<path d="M61.9666 61.9096H90.2044C90.18 63.9545 90.1066 65.9994 89.9844 68.0199C88.2165 68.411 86.4812 68.965 84.8029 69.6738C81.2263 71.1891 78.0164 73.3481 75.2545 76.11C72.4927 78.8718 70.3337 82.0818 68.8183 85.6583C68.1584 87.2144 67.637 88.8031 67.2541 90.4244H61.9585L61.9666 61.9096Z" fill="#31394F"/>
<path d="M90.2046 59.1722H61.9668V30.6493H86.3265C88.7544 39.3422 90.0905 49.1513 90.2046 59.1722Z" fill="#31394F"/>
<path d="M85.5035 27.9119H61.9585V0C66.6105 0.448089 71.1891 3.2018 75.2708 8.00857C79.4095 12.8968 82.9291 19.7485 85.5035 27.9119Z" fill="#31394F"/>
<path d="M59.2211 0V27.9119H35.676C38.2505 19.7485 41.77 12.8968 45.9087 8.01672C49.9904 3.2018 54.5691 0.448089 59.2211 0Z" fill="#31394F"/>
<path d="M59.2212 30.6493V59.1722H30.9834C31.0975 49.1513 32.4254 39.3422 34.8614 30.6493H59.2212Z" fill="#31394F"/>
<path d="M59.2212 61.9096V90.4325H34.8614C32.4254 81.7396 31.0893 71.9305 30.9834 61.9096H59.2212Z" fill="#31394F"/>
<path d="M59.2211 93.1699V121.082C54.5935 120.634 50.0475 117.921 45.9902 113.163C41.8189 108.275 38.2749 101.39 35.676 93.1699H59.2211Z" fill="#31394F"/>
<path d="M43.9048 114.939C45.6727 117.016 47.5384 118.744 49.4774 120.112C33.1751 117.041 18.5837 107.338 9.50781 93.1699H32.8084C35.5296 102.099 39.3587 109.611 43.9048 114.939Z" fill="#31394F"/>
<path d="M32.018 90.4325H7.85378C2.9248 81.7559 0.219971 71.9387 0 61.9096H28.2378C28.3518 71.8979 29.6472 81.6907 32.018 90.4325Z" fill="#31394F"/>
<path d="M7.85378 30.6493H32.018C29.6472 39.3911 28.3518 49.1839 28.2378 59.1722H0C0.228118 49.1431 2.9248 39.3259 7.85378 30.6493Z" fill="#31394F"/>
<path d="M49.4774 0.977661C47.5058 2.36266 45.6156 4.12243 43.8151 6.24067C39.3098 11.5607 35.5133 19.0397 32.8003 27.9119H9.50781C18.5755 13.7604 33.1751 4.04096 49.4774 0.977661Z" fill="#31394F"/>
</svg>
