<svg width="102" height="98" viewBox="0 0 102 98" fill="none" xmlns="http://www.w3.org/2000/svg">
<path d="M94.34 67.6519H93.2824V61.3095C93.2824 55.4835 88.5388 50.7391 82.712 50.7391C76.8852 50.7391 72.1416 55.4835 72.1416 61.3095V67.6519H71.084C67.0039 67.6519 63.6848 70.971 63.6848 75.0519V89.8503C63.6848 93.9312 67.0039 97.2503 71.084 97.2503H94.34C98.4201 97.2503 101.739 93.9312 101.739 89.8503V75.0519C101.739 70.971 98.4201 67.6519 94.34 67.6519ZM78.484 61.3095C78.484 58.9799 80.3824 57.0815 82.712 57.0815C85.0416 57.0815 86.94 58.9799 86.94 61.3095V67.6519H78.484V61.3095Z" fill="#31394F"/>
<path d="M57.3424 75.0519C57.3424 69.3436 60.8395 64.4428 65.7992 62.3671V61.3095C65.7992 58.7391 66.4201 56.329 67.4521 54.1426C64.2554 51.9988 60.416 50.7391 56.2856 50.7391H20.3448C9.27121 50.7391 0.260864 59.7495 0.260864 70.8231V85.6223C0.260864 87.3728 1.68155 88.7935 3.43206 88.7935H57.3424V75.0519Z" fill="#31394F"/>
<path d="M59.4567 21.1416C59.4567 32.8175 49.9911 42.2824 38.3152 42.2824C26.6392 42.2824 17.1736 32.8175 17.1736 21.1416C17.1736 9.46559 26.6392 0 38.3152 0C49.9911 0 59.4567 9.46559 59.4567 21.1416Z" fill="#31394F"/>
</svg>
