<svg width="29" height="22" viewBox="0 0 29 22" fill="none" xmlns="http://www.w3.org/2000/svg">
<path d="M2.60674 20.2206C0.977528 18.4412 0 16.5 0 13.2647C0 7.60294 4.07303 2.58824 9.77528 0L11.2416 2.10294C5.86517 5.01471 4.72472 8.7353 4.39888 11.1618C5.21348 10.6765 6.35393 10.5147 7.49438 10.6765C10.427 11 12.7079 13.2647 12.7079 16.3382C12.7079 17.7941 12.0562 19.25 11.0787 20.3824C9.9382 21.5147 8.63483 22 7.00562 22C5.21348 22 3.58427 21.1912 2.60674 20.2206ZM18.8989 20.2206C17.2697 18.4412 16.2921 16.5 16.2921 13.2647C16.2921 7.60294 20.3652 2.58824 26.0674 0L27.5337 2.10294C22.1573 5.01471 21.0169 8.7353 20.691 11.1618C21.5056 10.6765 22.6461 10.5147 23.7865 10.6765C26.7191 11 29 13.2647 29 16.3382C29 17.7941 28.3483 19.25 27.3708 20.3824C26.3933 21.5147 24.927 22 23.2978 22C21.5056 22 19.8764 21.1912 18.8989 20.2206Z" fill="#FFFAE2"/>
</svg>
