<svg width="129" height="25" viewBox="0 0 129 25" fill="none" xmlns="http://www.w3.org/2000/svg">
<path d="M54.831 20.153C53.3123 20.153 52.145 19.6883 51.329 18.759C50.513 17.8183 50.105 16.4867 50.105 14.764V8.1H51.55V14.713C51.55 15.7103 51.7653 16.634 52.196 17.484C52.638 18.3227 53.5163 18.742 54.831 18.742C56.123 18.742 56.9843 18.3227 57.415 17.484C57.8457 16.6453 58.061 15.7217 58.061 14.713V8.1H59.506V14.764C59.506 16.4867 59.098 17.8183 58.282 18.759C57.4773 19.6883 56.327 20.153 54.831 20.153ZM61.9459 11.041H63.4079V12.656H63.5439C63.7706 12.1347 64.1389 11.6983 64.6489 11.347C65.1589 10.9843 65.7822 10.803 66.5189 10.803C67.2782 10.803 67.9129 10.9843 68.4229 11.347C68.9329 11.6983 69.3069 12.1687 69.5449 12.758C69.7942 13.336 69.9189 13.965 69.9189 14.645V20H68.4569V14.832C68.4569 13.948 68.2246 13.2737 67.7599 12.809C67.3066 12.3443 66.7116 12.112 65.9749 12.112C65.1929 12.112 64.5696 12.367 64.1049 12.877C63.6402 13.3757 63.4079 14.0273 63.4079 14.832V20H61.9459V11.041ZM74.6999 20.068C74.0312 20.068 73.5325 19.9603 73.2039 19.745C72.8752 19.5297 72.6655 19.252 72.5749 18.912C72.4955 18.5607 72.4559 18.1073 72.4559 17.552L72.4729 7.25H73.9349V17.331C73.9349 17.7617 73.9519 18.0847 73.9859 18.3C74.0312 18.504 74.1389 18.6683 74.3089 18.793C74.4902 18.9177 74.7735 18.98 75.1589 18.98C75.3969 18.98 75.6065 18.963 75.7879 18.929V19.983C75.4819 20.0397 75.1192 20.068 74.6999 20.068ZM77.8696 11.041H79.3316V20H77.8696V11.041ZM78.5836 9.375C78.3116 9.375 78.0849 9.28433 77.9036 9.103C77.7223 8.91033 77.6316 8.68367 77.6316 8.423C77.6316 8.16233 77.7223 7.94133 77.9036 7.76C78.0849 7.56733 78.3116 7.471 78.5836 7.471C78.8556 7.471 79.0823 7.56733 79.2636 7.76C79.4563 7.94133 79.5526 8.16233 79.5526 8.423C79.5526 8.68367 79.4563 8.91033 79.2636 9.103C79.0823 9.28433 78.8556 9.375 78.5836 9.375ZM82.0504 11.041H83.4954V12.69H83.6314C83.6541 12.5767 83.7674 12.3727 83.9714 12.078C84.1754 11.772 84.4871 11.483 84.9064 11.211C85.3257 10.939 85.8471 10.803 86.4704 10.803C87.1277 10.803 87.6717 10.956 88.1024 11.262C88.5444 11.568 88.8731 11.8967 89.0884 12.248C89.3037 12.5993 89.4114 12.8203 89.4114 12.911H89.5474C89.7061 12.5143 90.0177 12.0667 90.4824 11.568C90.9584 11.058 91.6837 10.803 92.6584 10.803C93.3837 10.803 93.9901 10.99 94.4774 11.364C94.9647 11.7267 95.3217 12.197 95.5484 12.775C95.7864 13.353 95.9054 13.9707 95.9054 14.628V20H94.4604V14.764C94.4604 13.9027 94.2337 13.251 93.7804 12.809C93.3384 12.367 92.7887 12.146 92.1314 12.146C91.4514 12.146 90.8734 12.3783 90.3974 12.843C89.9327 13.2963 89.7004 13.9367 89.7004 14.764V20H88.2554V14.764C88.2554 13.9027 88.0287 13.251 87.5754 12.809C87.1334 12.367 86.5837 12.146 85.9264 12.146C85.2464 12.146 84.6684 12.3783 84.1924 12.843C83.7277 13.2963 83.4954 13.9367 83.4954 14.764V20H82.0504V11.041ZM98.4555 11.041H99.9175V20H98.4555V11.041ZM99.1695 9.375C98.8975 9.375 98.6709 9.28433 98.4895 9.103C98.3082 8.91033 98.2175 8.68367 98.2175 8.423C98.2175 8.16233 98.3082 7.94133 98.4895 7.76C98.6709 7.56733 98.8975 7.471 99.1695 7.471C99.4415 7.471 99.6682 7.56733 99.8495 7.76C100.042 7.94133 100.139 8.16233 100.139 8.423C100.139 8.68367 100.042 8.91033 99.8495 9.103C99.6682 9.28433 99.4415 9.375 99.1695 9.375ZM104.984 12.214V17.416C104.984 17.8353 105.001 18.147 105.035 18.351C105.08 18.5437 105.188 18.6967 105.358 18.81C105.539 18.9233 105.828 18.98 106.225 18.98C106.497 18.98 106.791 18.9403 107.109 18.861V19.915C107.029 19.949 106.854 19.983 106.582 20.017C106.321 20.051 106.049 20.068 105.766 20.068C105.108 20.068 104.615 19.9773 104.287 19.796C103.969 19.6033 103.76 19.3483 103.658 19.031C103.567 18.7023 103.522 18.2717 103.522 17.739V12.214H101.856V11.041H103.522V8.1H104.984V11.041H107.109V12.214H104.984ZM113.034 20.119C112.116 20.119 111.34 19.898 110.705 19.456C110.082 19.014 109.617 18.436 109.311 17.722C109.005 17.008 108.852 16.2543 108.852 15.461C108.852 14.6563 109.005 13.9027 109.311 13.2C109.617 12.486 110.088 11.908 110.722 11.466C111.357 11.024 112.133 10.803 113.051 10.803C114.253 10.803 115.21 11.2053 115.924 12.01C116.65 12.8147 117.012 13.9707 117.012 15.478V15.886H110.314V16.005C110.314 16.5037 110.428 16.974 110.654 17.416C110.881 17.858 111.198 18.215 111.606 18.487C112.014 18.759 112.485 18.895 113.017 18.895C113.595 18.895 114.094 18.7477 114.513 18.453C114.933 18.1583 115.244 17.7617 115.448 17.263H116.893C116.655 18.079 116.208 18.759 115.55 19.303C114.904 19.847 114.066 20.119 113.034 20.119ZM115.567 14.849C115.522 13.829 115.273 13.0923 114.819 12.639C114.366 12.1857 113.771 11.959 113.034 11.959C112.23 11.959 111.589 12.2253 111.113 12.758C110.637 13.2907 110.382 13.9877 110.348 14.849H115.567ZM122.486 20.119C121.693 20.119 121.013 19.915 120.446 19.507C119.891 19.099 119.466 18.5437 119.171 17.841C118.877 17.1383 118.729 16.345 118.729 15.461C118.729 14.5657 118.877 13.7667 119.171 13.064C119.466 12.3613 119.897 11.8117 120.463 11.415C121.03 11.007 121.716 10.803 122.52 10.803C123.314 10.803 123.954 10.9957 124.441 11.381C124.94 11.755 125.308 12.197 125.546 12.707H125.682V7.25H127.144V20H125.682V18.164H125.546C125.274 18.708 124.889 19.1727 124.39 19.558C123.903 19.932 123.268 20.119 122.486 20.119ZM122.928 18.861C123.812 18.861 124.487 18.538 124.951 17.892C125.416 17.2347 125.648 16.4243 125.648 15.461C125.648 14.4977 125.416 13.693 124.951 13.047C124.487 12.401 123.812 12.078 122.928 12.078C122.033 12.078 121.359 12.401 120.905 13.047C120.452 13.693 120.225 14.4977 120.225 15.461C120.225 16.4357 120.452 17.246 120.905 17.892C121.37 18.538 122.044 18.861 122.928 18.861Z" fill="#FFFAE2"/>
<path d="M34.4294 0.000260596C32.756 -0.0112275 31.1005 0.357244 29.5784 1.07993C28.0562 1.80262 26.7042 2.8621 25.6168 4.18435L23.9105 6.22775L27.7192 10.8011L29.9655 8.10647C30.5168 7.43743 31.2018 6.90134 31.9727 6.53552C32.7436 6.16969 33.582 5.98293 34.4294 5.98823C35.1896 5.9757 35.9447 6.12055 36.6505 6.41434C37.3564 6.70814 37.999 7.14501 38.5409 7.6995C39.0828 8.254 39.5132 8.91504 39.8069 9.64413C40.1007 10.3732 40.252 11.1558 40.252 11.9463C40.252 12.7367 40.1007 13.5193 39.8069 14.2484C39.5132 14.9775 39.0828 15.6385 38.5409 16.193C37.999 16.7475 37.3564 17.1844 36.6505 17.4782C35.9447 17.772 35.1896 17.9168 34.4294 17.9043C33.5847 17.9101 32.7489 17.7242 31.9804 17.3597C31.212 16.9951 30.5292 16.4606 29.9799 15.7935C21.6382 5.78015 25.6017 10.5541 20.3034 4.17687C19.2145 2.85692 17.8621 1.79951 16.3402 1.07821C14.8183 0.356912 13.1634 -0.0109366 11.4909 0.000260596C8.44329 0.000260596 5.52055 1.25885 3.36559 3.49916C1.21064 5.73947 0 8.77798 0 11.9463C0 15.1145 1.21064 18.153 3.36559 20.3933C5.52055 22.6337 8.44329 23.8922 11.4909 23.8922C13.1642 23.9037 14.8197 23.5353 16.3419 22.8126C17.864 22.0899 19.216 21.0304 20.3034 19.7082L22.0097 17.6648L18.201 13.0915L15.9547 15.786C15.4034 16.4551 14.7184 16.9912 13.9475 17.357C13.1766 17.7228 12.3383 17.9096 11.4909 17.9043C10.7306 17.9168 9.97555 17.772 9.26967 17.4782C8.56379 17.1844 7.92119 16.7475 7.3793 16.193C6.83741 15.6385 6.40705 14.9775 6.1133 14.2484C5.81954 13.5193 5.66826 12.7367 5.66826 11.9463C5.66826 11.1558 5.81954 10.3732 6.1133 9.64413C6.40705 8.91504 6.83741 8.254 7.3793 7.6995C7.92119 7.14501 8.56379 6.70814 9.26967 6.41434C9.97555 6.12055 10.7306 5.9757 11.4909 5.98823C12.3355 5.98242 13.1713 6.16828 13.9398 6.53284C14.7083 6.89739 15.391 7.43187 15.9403 8.09899C24.282 18.1124 20.3185 13.3385 25.6168 19.7156C26.8654 21.2618 28.469 22.4556 30.2793 23.1863C32.0895 23.917 34.0478 24.1612 35.9729 23.8961C37.898 23.631 39.7276 22.8653 41.2924 21.6699C42.8572 20.4744 44.1067 18.8878 44.925 17.057C45.7433 15.2262 46.1042 13.2104 45.9741 11.1961C45.844 9.18183 45.2271 7.23424 44.1807 5.53362C43.1342 3.833 41.692 2.43434 39.9875 1.46712C38.2829 0.499895 36.3713 -0.0046266 34.4294 0.000260596V0.000260596Z" fill="#16CFA3"/>
</svg>
