<svg width="40" height="35" viewBox="0 0 40 35" fill="none" xmlns="http://www.w3.org/2000/svg">
<g filter="url(#filter0_d_279_25)">
<path d="M33 4.93333H27.5333L25.6333 1.5C25.4546 1.19043 25.1242 0.999805 24.7667 1H15.2667C14.9092 0.999805 14.5788 1.19043 14.4 1.5L12.4667 4.93333H7C5.89544 4.93333 5 5.82878 5 6.93333V23.2C5 24.3046 5.89544 25.2 7 25.2H33C34.1046 25.2 35 24.3046 35 23.2V6.93333C35 5.82878 34.1046 4.93333 33 4.93333ZM20 21.3667C15.9131 21.3667 12.6 18.0536 12.6 13.9667C12.6 9.87975 15.9131 6.56667 20 6.56667C24.0869 6.56667 27.4 9.87975 27.4 13.9667C27.3818 18.046 24.0793 21.3484 20 21.3667Z" fill="#FFFAE2"/>
<path d="M26.0709 1.25786L26.0708 1.2579L27.8281 4.43333H33C34.3807 4.43333 35.5 5.55263 35.5 6.93333V23.2C35.5 24.5807 34.3807 25.7 33 25.7H7C5.6193 25.7 4.5 24.5807 4.5 23.2V6.93333C4.5 5.55263 5.6193 4.43333 7 4.43333H12.1744L13.9643 1.25467L13.967 1.24994L13.967 1.24995C14.2351 0.785711 14.7306 0.499804 15.2667 0.5L26.0709 1.25786ZM26.0709 1.25786L26.0663 1.24995M26.0709 1.25786L26.0663 1.24995M26.0663 1.24995C25.7982 0.785711 25.3028 0.499804 24.7667 0.5M26.0663 1.24995L24.7667 0.5M24.7667 0.5C24.7666 0.5 24.7665 0.5 24.7664 0.5M24.7667 0.5L24.7664 0.5M24.7664 0.5L15.2668 0.5C15.2668 0.5 15.2669 0.5 15.2669 0.5H24.7664ZM19.999 20.8667C16.1887 20.8661 13.1 17.7771 13.1 13.9667C13.1 10.1559 16.1892 7.06667 20 7.06667C23.8105 7.06667 26.8995 10.1554 26.9 13.9657C26.8823 17.7696 23.8029 20.849 19.999 20.8667Z" stroke="#31394F" stroke-opacity="0.5"/>
<path d="M19.9999 17.6667C22.0434 17.6667 23.6999 16.0102 23.6999 13.9667C23.6999 11.9233 22.0434 10.2667 19.9999 10.2667C17.9565 10.2667 16.2999 11.9233 16.2999 13.9667C16.2999 16.0102 17.9565 17.6667 19.9999 17.6667Z" fill="#FFFAE2"/>
<path d="M19.9999 18.1667C22.3195 18.1667 24.1999 16.2863 24.1999 13.9667C24.1999 11.6471 22.3195 9.76672 19.9999 9.76672C17.6803 9.76672 15.7999 11.6471 15.7999 13.9667C15.7999 16.2863 17.6803 18.1667 19.9999 18.1667Z" stroke="#31394F" stroke-opacity="0.5"/>
</g>
<defs>
<filter id="filter0_d_279_25" x="0" y="0" width="40" height="34.2" filterUnits="userSpaceOnUse" color-interpolation-filters="sRGB">
<feFlood flood-opacity="0" result="BackgroundImageFix"/>
<feColorMatrix in="SourceAlpha" type="matrix" values="0 0 0 0 0 0 0 0 0 0 0 0 0 0 0 0 0 0 127 0" result="hardAlpha"/>
<feOffset dy="4"/>
<feGaussianBlur stdDeviation="2"/>
<feComposite in2="hardAlpha" operator="out"/>
<feColorMatrix type="matrix" values="0 0 0 0 0 0 0 0 0 0 0 0 0 0 0 0 0 0 0.25 0"/>
<feBlend mode="normal" in2="BackgroundImageFix" result="effect1_dropShadow_279_25"/>
<feBlend mode="normal" in="SourceGraphic" in2="effect1_dropShadow_279_25" result="shape"/>
</filter>
</defs>
</svg>
