<svg width="80" height="80" viewBox="0 0 80 80" fill="none" xmlns="http://www.w3.org/2000/svg">
<g clip-path="url(#clip0_6837_5601)">
<path d="M0 40C0 17.9086 17.9086 0 40 0C62.0914 0 80 17.9086 80 40C80 62.0914 62.0914 80 40 80C17.9086 80 0 62.0914 0 40Z" fill="#31394F"/>
<g clip-path="url(#clip1_6837_5601)">
<path d="M53.2038 37.4774C53.367 38.4171 53.4484 39.3692 53.447 40.3229C53.447 44.5824 51.9245 48.1839 49.275 50.6217H49.2785C46.9615 52.7619 43.7765 54.0009 40 54.0009C36.287 54.0009 32.726 52.5259 30.1005 49.9004C27.475 47.2749 26 43.714 26 40.0009C26 36.2879 27.475 32.7269 30.1005 30.1014C32.726 27.4759 36.287 26.0009 40 26.0009C43.4754 25.9602 46.8317 27.2659 49.366 29.6444L45.369 33.6414C43.9242 32.2641 41.9959 31.5099 40 31.5414C36.3478 31.5414 33.245 34.0054 32.139 37.3234C31.5526 39.0621 31.5526 40.945 32.139 42.6837H32.1443C33.2555 45.9964 36.353 48.4604 40.0053 48.4604C41.8918 48.4604 43.5123 47.9774 44.7688 47.1234H44.7635C45.4931 46.6401 46.1172 46.0139 46.5981 45.2827C47.0791 44.5516 47.4069 43.7305 47.5618 42.8692H40V37.4792H53.2038V37.4774Z" fill="white"/>
</g>
</g>
<defs>
<clipPath id="clip0_6837_5601">
<path d="M0 40C0 17.9086 17.9086 0 40 0C62.0914 0 80 17.9086 80 40C80 62.0914 62.0914 80 40 80C17.9086 80 0 62.0914 0 40Z" fill="white"/>
</clipPath>
<clipPath id="clip1_6837_5601">
<rect width="28" height="28" fill="white" transform="translate(26 26)"/>
</clipPath>
</defs>
</svg>
