<svg width="47" height="50" viewBox="0 0 47 50" fill="none" xmlns="http://www.w3.org/2000/svg">
<path d="M35.8331 0H32.4997C26.5194 0.00683591 21.6733 4.85311 21.6664 10.8333V19.9999H0.8332C0.373143 19.9998 9.76559e-05 20.3727 0 20.8327V20.8332V37.4999C0.00468748 41.64 3.35975 44.9951 7.49997 44.9998H18.4668C18.9271 44.9922 19.294 44.613 19.2865 44.1528C19.279 43.7033 18.9164 43.3406 18.4668 43.3332H7.49988C4.27977 43.3294 1.67031 40.72 1.6666 37.4999V21.6665H28.3332V25.2415C28.3408 25.7018 28.72 26.0687 29.1803 26.0611C29.6298 26.0537 29.9925 25.6911 29.9999 25.2415V20.833C30.0002 20.3731 29.6275 20 29.1676 19.9998C29.1672 19.9998 29.1668 19.9998 29.1664 19.9998H26.6665V10.8333C26.6702 7.61316 29.2797 5.00369 32.4998 4.99998H35.8332C39.0532 5.00379 41.6626 7.61326 41.6665 10.8333V19.1666C41.8018 22.4781 46.528 22.4866 46.6664 19.1666V10.8333C46.6594 4.85311 41.8133 0.00693357 35.8331 0V0ZM44.9998 19.1666C44.9921 19.6269 44.6129 19.9938 44.1527 19.9863C43.7032 19.9788 43.3406 19.6162 43.3331 19.1666V10.8333C43.3285 6.69304 39.9733 3.33798 35.8331 3.33329H32.4997C28.3592 3.33739 25.0034 6.69265 24.9988 10.8333V19.9999H23.3321V10.8334C23.3379 5.77283 27.4391 1.67197 32.4997 1.66679H35.8331C40.8933 1.67255 44.994 5.77322 44.9997 10.8334V19.1666H44.9998Z" fill="#FFFAE2"/>
<path d="M42.4062 30.0056C38.7186 30.4358 35.0198 29.2979 32.2117 26.8695C31.899 26.5978 31.434 26.5978 31.1213 26.8695C29.9614 27.8752 28.6351 28.6711 27.2019 29.2213C25.2027 29.9789 23.0513 30.2477 20.9272 30.0051C20.6913 29.977 20.4548 30.052 20.2782 30.2109C20.1011 30.369 19.9997 30.5952 19.9998 30.8326V39.9C20.0053 42.8237 21.7045 45.4795 24.3568 46.7097L31.3173 49.9226C31.5388 50.0249 31.794 50.0249 32.0156 49.9226L38.976 46.7097C41.6282 45.4793 43.3273 42.8237 43.333 39.9V30.8331C43.3308 30.3711 42.9543 29.9984 42.4923 30.0007C42.4635 30.0009 42.4348 30.0025 42.4062 30.0056ZM41.6663 39.9006C41.662 42.1745 40.3405 44.2399 38.2777 45.1968L31.667 48.2484L25.0562 45.1968C22.9929 44.2404 21.6708 42.1748 21.6665 39.9006V31.7372C25.2727 31.9349 28.8275 30.8124 31.6664 28.5796C34.5053 30.8123 38.0601 31.9348 41.6664 31.7372L41.6663 39.9006Z" fill="#FFFAE2"/>
<path d="M35.3325 35.1667L29.2445 39.7322L28.0891 38.5765C27.7638 38.2511 27.2361 38.2511 26.9107 38.5765C26.5853 38.9019 26.5853 39.4296 26.9107 39.7549L28.5774 41.4216C28.8704 41.7152 29.3347 41.7482 29.6663 41.499L36.3328 36.499C36.6987 36.2202 36.7693 35.6975 36.4905 35.3315C36.2143 34.9693 35.6986 34.8959 35.3325 35.1667Z" fill="#FFFAE2"/>
</svg>
