<svg width="730" height="712" viewBox="0 0 730 712" fill="none" xmlns="http://www.w3.org/2000/svg">
<path fill-rule="evenodd" clip-rule="evenodd" d="M285.416 283.585C294.039 306.165 298.749 330.551 298.749 356C298.749 381.437 294.039 405.834 285.416 428.414L315.934 445.305C327.286 417.644 333.529 387.521 333.529 355.988C333.529 334.639 330.675 313.935 325.305 294.212L421.419 240.983C434.578 276.987 441.731 315.68 441.731 355.988C441.731 437.69 412.335 512.795 363.15 572.144L360.296 570.554L267.995 519.441L237.078 502.323L137.337 447.086C169.513 419.533 190.585 402.451 190.585 355.988C190.585 318.633 170.385 284.29 137.337 264.89L267.995 192.535L360.296 141.421L363.15 139.832C381.966 162.543 397.892 187.562 410.378 214.386L315.946 266.683L285.416 283.585ZM77.2114 282.139C34.6808 282.139 0.200195 315.214 0.200195 356.012C0.200195 396.809 34.6808 429.873 77.2114 429.873C119.73 429.873 154.223 396.809 154.223 356.012C154.223 315.214 119.73 282.139 77.2114 282.139ZM488.075 70.6444L393.705 122.905C436.996 176.553 465.682 241.58 474.081 312.513L574.282 257.024L607.716 238.508C616.801 276.27 621.611 315.585 621.611 356C621.611 437.87 601.884 515.329 566.756 584.241L534.805 566.538C566.855 502.861 584.825 431.451 584.825 356C584.825 332.487 583.08 309.357 579.703 286.741L476.436 343.939C476.56 347.943 476.635 351.971 476.635 356C476.635 443.799 445.681 524.653 393.692 589.094L488.062 641.355L520.1 659.094L614.184 711.2C687.083 610.395 729.8 487.979 729.8 356C729.8 265.332 709.638 179.171 673.388 101.437L579.068 153.674L546.942 171.473C543.166 162.663 539.117 153.985 534.817 145.45L660.665 75.7606C646.97 49.6779 631.418 24.6352 614.196 0.799805C572.152 24.0853 530.119 47.3589 488.075 70.6444Z" fill="#16CFA3"/>
</svg>
