<svg width="237" height="44" viewBox="0 0 237 44" fill="none" xmlns="http://www.w3.org/2000/svg">
<path d="M106.29 36.27C103.61 36.27 101.55 35.45 100.11 33.81C98.67 32.15 97.95 29.8 97.95 26.76V15H100.5V26.67C100.5 28.43 100.88 30.06 101.64 31.56C102.42 33.04 103.97 33.78 106.29 33.78C108.57 33.78 110.09 33.04 110.85 31.56C111.61 30.08 111.99 28.45 111.99 26.67V15H114.54V26.76C114.54 29.8 113.82 32.15 112.38 33.81C110.96 35.45 108.93 36.27 106.29 36.27ZM118.846 20.19H121.426V23.04H121.666C122.066 22.12 122.716 21.35 123.616 20.73C124.516 20.09 125.616 19.77 126.916 19.77C128.256 19.77 129.376 20.09 130.276 20.73C131.176 21.35 131.836 22.18 132.256 23.22C132.696 24.24 132.916 25.35 132.916 26.55V36H130.336V26.88C130.336 25.32 129.926 24.13 129.106 23.31C128.306 22.49 127.256 22.08 125.956 22.08C124.576 22.08 123.476 22.53 122.656 23.43C121.836 24.31 121.426 25.46 121.426 26.88V36H118.846V20.19ZM141.353 36.12C140.173 36.12 139.293 35.93 138.713 35.55C138.133 35.17 137.763 34.68 137.603 34.08C137.463 33.46 137.393 32.66 137.393 31.68L137.423 13.5H140.003V31.29C140.003 32.05 140.033 32.62 140.093 33C140.173 33.36 140.363 33.65 140.663 33.87C140.983 34.09 141.483 34.2 142.163 34.2C142.583 34.2 142.953 34.17 143.273 34.11V35.97C142.733 36.07 142.093 36.12 141.353 36.12ZM146.946 20.19H149.526V36H146.946V20.19ZM148.206 17.25C147.726 17.25 147.326 17.09 147.006 16.77C146.686 16.43 146.526 16.03 146.526 15.57C146.526 15.11 146.686 14.72 147.006 14.4C147.326 14.06 147.726 13.89 148.206 13.89C148.686 13.89 149.086 14.06 149.406 14.4C149.746 14.72 149.916 15.11 149.916 15.57C149.916 16.03 149.746 16.43 149.406 16.77C149.086 17.09 148.686 17.25 148.206 17.25ZM154.324 20.19H156.874V23.1H157.114C157.154 22.9 157.354 22.54 157.714 22.02C158.074 21.48 158.624 20.97 159.364 20.49C160.104 20.01 161.024 19.77 162.124 19.77C163.284 19.77 164.244 20.04 165.004 20.58C165.784 21.12 166.364 21.7 166.744 22.32C167.124 22.94 167.314 23.33 167.314 23.49H167.554C167.834 22.79 168.384 22 169.204 21.12C170.044 20.22 171.324 19.77 173.044 19.77C174.324 19.77 175.394 20.1 176.254 20.76C177.114 21.4 177.744 22.23 178.144 23.25C178.564 24.27 178.774 25.36 178.774 26.52V36H176.224V26.76C176.224 25.24 175.824 24.09 175.024 23.31C174.244 22.53 173.274 22.14 172.114 22.14C170.914 22.14 169.894 22.55 169.054 23.37C168.234 24.17 167.824 25.3 167.824 26.76V36H165.274V26.76C165.274 25.24 164.874 24.09 164.074 23.31C163.294 22.53 162.324 22.14 161.164 22.14C159.964 22.14 158.944 22.55 158.104 23.37C157.284 24.17 156.874 25.3 156.874 26.76V36H154.324V20.19ZM183.274 20.19H185.854V36H183.274V20.19ZM184.534 17.25C184.054 17.25 183.654 17.09 183.334 16.77C183.014 16.43 182.854 16.03 182.854 15.57C182.854 15.11 183.014 14.72 183.334 14.4C183.654 14.06 184.054 13.89 184.534 13.89C185.014 13.89 185.414 14.06 185.734 14.4C186.074 14.72 186.244 15.11 186.244 15.57C186.244 16.03 186.074 16.43 185.734 16.77C185.414 17.09 185.014 17.25 184.534 17.25ZM194.794 22.26V31.44C194.794 32.18 194.824 32.73 194.884 33.09C194.964 33.43 195.154 33.7 195.454 33.9C195.774 34.1 196.284 34.2 196.984 34.2C197.464 34.2 197.984 34.13 198.544 33.99V35.85C198.404 35.91 198.094 35.97 197.614 36.03C197.154 36.09 196.674 36.12 196.174 36.12C195.014 36.12 194.144 35.96 193.564 35.64C193.004 35.3 192.634 34.85 192.454 34.29C192.294 33.71 192.214 32.95 192.214 32.01V22.26H189.274V20.19H192.214V15H194.794V20.19H198.544V22.26H194.794ZM209.002 36.21C207.382 36.21 206.012 35.82 204.892 35.04C203.792 34.26 202.972 33.24 202.432 31.98C201.892 30.72 201.622 29.39 201.622 27.99C201.622 26.57 201.892 25.24 202.432 24C202.972 22.74 203.802 21.72 204.922 20.94C206.042 20.16 207.412 19.77 209.032 19.77C211.152 19.77 212.842 20.48 214.102 21.9C215.382 23.32 216.022 25.36 216.022 28.02V28.74H204.202V28.95C204.202 29.83 204.402 30.66 204.802 31.44C205.202 32.22 205.762 32.85 206.482 33.33C207.202 33.81 208.032 34.05 208.972 34.05C209.992 34.05 210.872 33.79 211.612 33.27C212.352 32.75 212.902 32.05 213.262 31.17H215.812C215.392 32.61 214.602 33.81 213.442 34.77C212.302 35.73 210.822 36.21 209.002 36.21ZM213.472 26.91C213.392 25.11 212.952 23.81 212.152 23.01C211.352 22.21 210.302 21.81 209.002 21.81C207.582 21.81 206.452 22.28 205.612 23.22C204.772 24.16 204.322 25.39 204.262 26.91H213.472ZM225.682 36.21C224.282 36.21 223.082 35.85 222.082 35.13C221.102 34.41 220.352 33.43 219.832 32.19C219.312 30.95 219.052 29.55 219.052 27.99C219.052 26.41 219.312 25 219.832 23.76C220.352 22.52 221.112 21.55 222.112 20.85C223.112 20.13 224.322 19.77 225.742 19.77C227.142 19.77 228.272 20.11 229.132 20.79C230.012 21.45 230.662 22.23 231.082 23.13H231.322V13.5H233.902V36H231.322V32.76H231.082C230.602 33.72 229.922 34.54 229.042 35.22C228.182 35.88 227.062 36.21 225.682 36.21ZM226.462 33.99C228.022 33.99 229.212 33.42 230.032 32.28C230.852 31.12 231.262 29.69 231.262 27.99C231.262 26.29 230.852 24.87 230.032 23.73C229.212 22.59 228.022 22.02 226.462 22.02C224.882 22.02 223.692 22.59 222.892 23.73C222.092 24.87 221.692 26.29 221.692 27.99C221.692 29.71 222.092 31.14 222.892 32.28C223.712 33.42 224.902 33.99 226.462 33.99Z" fill="#FFFAE2"/>
<path d="M64.3679 0.000477759C61.2396 -0.0205837 58.1444 0.654948 55.2987 1.97988C52.453 3.30481 49.9253 5.24719 47.8923 7.67131L44.7022 11.4175L51.8228 19.8019L56.0224 14.8619C57.0532 13.6353 58.3338 12.6525 59.7751 11.9818C61.2163 11.3111 62.7836 10.9687 64.3679 10.9784C65.7893 10.9554 67.2009 11.221 68.5206 11.7596C69.8403 12.2983 71.0417 13.0992 72.0548 14.1158C73.0679 15.1323 73.8724 16.3442 74.4216 17.6809C74.9708 19.0176 75.2536 20.4523 75.2536 21.9015C75.2536 23.3507 74.9708 24.7854 74.4216 26.122C73.8724 27.4587 73.0679 28.6706 72.0548 29.6872C71.0417 30.7038 69.8403 31.5047 68.5206 32.0433C67.2009 32.5819 65.7893 32.8475 64.3679 32.8245C62.7887 32.8352 61.2262 32.4944 59.7895 31.8261C58.3528 31.1577 57.0764 30.1778 56.0494 28.9548C40.4541 10.5969 47.8641 19.3491 37.9585 7.65759C35.9228 5.23769 33.3943 3.29909 30.549 1.97672C27.7037 0.654339 24.6099 -0.0200505 21.4829 0.000477759C15.7853 0.000477759 10.321 2.3079 6.2922 6.41513C2.26337 10.5224 0 16.093 0 21.9015C0 27.71 2.26337 33.2806 6.2922 37.3878C10.321 41.495 15.7853 43.8025 21.4829 43.8025C24.6113 43.8235 27.7064 43.148 30.5522 41.8231C33.3979 40.4981 35.9255 38.5557 37.9585 36.1316L41.1486 32.3854L34.028 24.001L29.8284 28.9411C28.7976 30.1677 27.517 31.1505 26.0758 31.8212C24.6345 32.4918 23.0672 32.8342 21.4829 32.8245C20.0616 32.8475 18.6499 32.5819 17.3302 32.0433C16.0106 31.5047 14.8092 30.7038 13.7961 29.6872C12.783 28.6706 11.9784 27.4587 11.4292 26.122C10.88 24.7854 10.5972 23.3507 10.5972 21.9015C10.5972 20.4523 10.88 19.0176 11.4292 17.6809C11.9784 16.3442 12.783 15.1323 13.7961 14.1158C14.8092 13.0992 16.0106 12.2983 17.3302 11.7596C18.6499 11.221 20.0616 10.9554 21.4829 10.9784C23.0621 10.9678 24.6246 11.3085 26.0613 11.9769C27.4981 12.6452 28.7745 13.6251 29.8015 14.8481C45.3968 33.206 37.9868 24.4538 47.8923 36.1453C50.2266 38.98 53.2247 41.1685 56.609 42.5082C59.9934 43.8479 63.6545 44.2955 67.2536 43.8095C70.8527 43.3236 74.2733 41.9198 77.1989 39.7281C80.1244 37.5364 82.4603 34.6277 83.9902 31.2712C85.5202 27.9148 86.1947 24.2191 85.9515 20.5262C85.7083 16.8334 84.5551 13.2628 82.5986 10.145C80.6422 7.02718 77.9459 4.46296 74.7592 2.68972C71.5725 0.916474 67.9984 -0.00848211 64.3679 0.000477759Z" fill="#FFFAE2"/>
</svg>
