<svg width="50" height="50" viewBox="0 0 50 50" fill="none" xmlns="http://www.w3.org/2000/svg">
<path d="M49.4478 34.8985L43.9278 31.8986C43.4318 31.629 42.8338 31.8486 42.5859 32.3834C42.3379 32.9225 42.5399 33.5725 43.0339 33.842L46.7639 35.8703L25 47.6983L3.23603 35.8703L6.966 33.842C7.46004 33.5725 7.662 32.9225 7.41405 32.3834C7.166 31.8486 6.566 31.629 6.07206 31.8986L0.551952 34.8985C0.213964 35.0833 0 35.4594 0 35.8703C0 36.2812 0.213964 36.6572 0.551952 36.842L24.5519 49.8853C24.6939 49.9614 24.8459 50.0005 25 50.0005C25.154 50.0005 25.3059 49.9613 25.448 49.8853L49.4479 36.842C49.7859 36.6572 49.9999 36.2812 49.9999 35.8703C49.9999 35.4594 49.7859 35.0833 49.4478 34.8985Z" fill="#31394F"/>
<path d="M49.4478 24.0288L43.9278 21.0289C43.4318 20.7593 42.8338 20.9766 42.5859 21.5136C42.3379 22.0528 42.5399 22.7028 43.0339 22.9723L46.7639 25.0006L25 36.8286L3.23603 25.0006L6.966 22.9723C7.46004 22.7028 7.662 22.0528 7.41405 21.5136C7.166 20.9766 6.566 20.7593 6.07206 21.0289L0.551952 24.0288C0.213964 24.2136 0 24.5897 0 25.0006C0 25.4114 0.213964 25.7875 0.551952 25.9723L24.5519 39.0156C24.6939 39.0917 24.8459 39.1308 25 39.1308C25.154 39.1308 25.3059 39.0916 25.448 39.0156L49.4479 25.9723C49.7859 25.7875 49.9999 25.4114 49.9999 25.0006C49.9999 24.5897 49.7859 24.2136 49.4478 24.0288Z" fill="#31394F"/>
<path d="M0.551952 15.1026L24.5519 28.1459C24.6939 28.222 24.8459 28.2611 25 28.2611C25.154 28.2611 25.3059 28.2219 25.448 28.1459L49.448 15.1026C49.7859 14.9178 50 14.5417 50 14.1308C50 13.7199 49.786 13.3439 49.4481 13.1591L25.4481 0.115753C25.1661 -0.0385843 24.8341 -0.0385843 24.5521 0.115753L0.55205 13.1592C0.213964 13.344 0 13.72 0 14.1309C0 14.5418 0.213964 14.9178 0.551952 15.1026ZM25 2.3028L46.7639 14.1309L25 25.959L3.23603 14.1309L25 2.3028Z" fill="#31394F"/>
</svg>
