<svg width="220" height="220" viewBox="0 0 220 220" fill="none" xmlns="http://www.w3.org/2000/svg">
<path d="M110 1C49.8954 1 1 49.8954 1 110C1 170.105 49.8954 219 110 219C170.105 219 219 170.105 219 110C219 49.8954 170.105 1 110 1ZM155.417 155.417H64.5832C59.5602 155.417 55.5 151.348 55.5 146.334C55.5 141.32 59.5602 137.25 64.5832 137.25H155.416C160.439 137.25 164.5 141.32 164.5 146.334C164.5 151.347 160.44 155.417 155.417 155.417ZM155.417 119.083H64.5832C59.5602 119.083 55.5 115.014 55.5 110C55.5 104.986 59.5602 100.917 64.5832 100.917H155.416C160.439 100.917 164.5 104.986 164.5 110C164.5 115.014 160.44 119.083 155.417 119.083ZM155.417 82.75H64.5832C59.5602 82.75 55.5 78.6808 55.5 73.6668C55.5 68.6528 59.5602 64.5836 64.5832 64.5836H155.416C160.439 64.5836 164.5 68.6528 164.5 73.6668C164.5 78.6808 160.44 82.75 155.417 82.75Z" fill="#FFFAE2" stroke="#31394F"/>
</svg>
