<svg width="123" height="123" viewBox="0 0 123 123" fill="none" xmlns="http://www.w3.org/2000/svg">
<path d="M0.153076 61.5765C0.153076 27.6507 27.6534 0.153076 61.5755 0.153076C95.4995 0.153076 123 27.651 123 61.5765C123 95.4986 95.4995 122.999 61.5755 122.999C27.6534 122.999 0.153076 95.4986 0.153076 61.5765Z" fill="#31394F"/>
<path d="M106.185 42.7762C103.623 42.7819 101.061 42.7896 98.4989 42.7953C92.7368 29.8764 81.4271 20.5435 67.141 18.3055C51.2237 15.8119 35.9893 23.2049 26.9054 36.2097C22.8706 41.9852 32.3533 47.3924 36.3537 41.6653C48.8121 23.8291 75.4139 25.441 86.3453 42.8255C83.9786 42.831 81.6118 42.8369 79.2448 42.8423C78.5827 42.8443 78.1122 43.1387 77.8213 43.5547C77.3459 44.0642 77.1652 44.8105 77.6631 45.5815C82.1704 52.5761 86.6776 59.5705 91.1859 66.5641C91.9438 67.7395 93.5784 67.7298 94.3294 66.5527C98.8015 59.5363 103.274 52.5202 107.746 45.5038C108.486 44.3438 107.512 42.7728 106.185 42.7762Z" fill="#FFFAE2"/>
<path d="M86.8994 81.1724C74.5376 98.8731 48.2475 97.4222 37.1606 80.4175C39.4288 80.412 41.6971 80.4061 43.9656 80.4006C44.6257 80.3987 45.0953 80.106 45.387 79.6913C45.8634 79.1815 46.0451 78.4355 45.547 77.6617C41.0407 70.6681 36.5332 63.6727 32.0259 56.6801C31.2693 55.5037 29.6336 55.5134 28.8827 56.6915C24.4103 63.7069 19.937 70.7231 15.4639 77.7395C14.7243 78.9004 15.6986 80.471 17.0257 80.4672C19.6674 80.4606 22.3087 80.4539 24.9503 80.4474C30.7684 93.1539 41.9793 102.318 56.1142 104.532C72.0314 107.026 87.2659 99.634 96.3477 86.6282C100.382 80.8515 90.8993 75.4445 86.8994 81.1724Z" fill="#FFFAE2"/>
</svg>
