<svg width="27" height="39" viewBox="0 0 27 39" fill="none" xmlns="http://www.w3.org/2000/svg">
<path d="M16.8516 0C15.1379 0 13.7436 1.39443 13.7436 3.10801V24.4194C10.8503 25.7766 9.1568 28.89 9.6035 32.0989C10.0578 35.3609 12.7682 37.9804 16.0491 38.328C16.3212 38.3569 16.5921 38.3711 16.8605 38.3711C18.6745 38.3711 20.3858 37.7184 21.7483 36.4922C23.289 35.1067 24.1725 33.1239 24.1725 31.0533C24.1725 28.1937 22.529 25.6226 19.9591 24.4194V3.10801C19.9591 1.39443 18.5653 0 16.8516 0ZM23.266 31.0533C23.266 32.8679 22.4918 34.6045 21.1422 35.8189C19.7714 37.0516 17.9982 37.6222 16.1447 37.4263C13.2721 37.1224 10.8987 34.8293 10.5016 31.9738C10.0974 29.0705 11.6889 26.2569 14.3721 25.1316C14.5402 25.0614 14.65 24.8962 14.65 24.7138V3.10801C14.65 1.89415 15.6378 0.906399 16.8516 0.906399C18.0654 0.906399 19.0527 1.89423 19.0527 3.10801V24.7138C19.0527 24.8962 19.1624 25.0614 19.3306 25.1316C21.7211 26.1342 23.266 28.458 23.266 31.0533Z" fill="#FFFAE2"/>
<path d="M17.2994 16.1391C17.2994 15.8889 17.0964 15.6859 16.8462 15.6859C16.5959 15.6859 16.393 15.8889 16.393 16.1391V27.0766C14.4036 27.3032 12.8518 28.999 12.8518 31.0533C12.8518 33.2561 14.6439 35.0482 16.8462 35.0482C19.0549 35.0482 20.8517 33.2561 20.8517 31.0533C20.8517 28.9986 19.2952 27.3023 17.2994 27.0764V16.1391ZM19.9453 31.0532C19.9453 32.7562 18.555 34.1418 16.8462 34.1418C15.1437 34.1418 13.7582 32.7562 13.7582 31.0532C13.7582 29.3449 15.1438 27.9552 16.8462 27.9552C18.555 27.9553 19.9453 29.3449 19.9453 31.0532Z" fill="#FFFAE2"/>
<path d="M22.5531 4.83938H25.8593C26.1096 4.83938 26.3125 4.63641 26.3125 4.38618C26.3125 4.13596 26.1096 3.93298 25.8593 3.93298H22.5531C22.3028 3.93298 22.0999 4.13596 22.0999 4.38618C22.0999 4.63641 22.3028 4.83938 22.5531 4.83938Z" fill="#FFFAE2"/>
<path d="M22.5531 7.51846H24.2065C24.4567 7.51846 24.6597 7.31549 24.6597 7.06526C24.6597 6.81503 24.4567 6.61206 24.2065 6.61206H22.5531C22.3028 6.61206 22.0999 6.81503 22.0999 7.06526C22.0999 7.31541 22.3028 7.51846 22.5531 7.51846Z" fill="#FFFAE2"/>
<path d="M22.5531 10.1969H25.8593C26.1096 10.1969 26.3125 9.99395 26.3125 9.74373C26.3125 9.4935 26.1096 9.29053 25.8593 9.29053H22.5531C22.3028 9.29053 22.0999 9.4935 22.0999 9.74373C22.0999 9.99395 22.3028 10.1969 22.5531 10.1969Z" fill="#FFFAE2"/>
<path d="M22.5531 12.8759H24.2065C24.4567 12.8759 24.6597 12.6729 24.6597 12.4227C24.6597 12.1725 24.4567 11.9695 24.2065 11.9695H22.5531C22.3028 11.9695 22.0999 12.1725 22.0999 12.4227C22.0999 12.6729 22.3028 12.8759 22.5531 12.8759Z" fill="#FFFAE2"/>
<path d="M22.5531 15.5543H25.8593C26.1096 15.5543 26.3125 15.3514 26.3125 15.1011C26.3125 14.8509 26.1096 14.6479 25.8593 14.6479H22.5531C22.3028 14.6479 22.0999 14.8509 22.0999 15.1011C22.0999 15.3514 22.3028 15.5543 22.5531 15.5543Z" fill="#FFFAE2"/>
<path d="M22.5531 18.2334H24.2065C24.4567 18.2334 24.6597 18.0305 24.6597 17.7802C24.6597 17.53 24.4567 17.327 24.2065 17.327H22.5531C22.3028 17.327 22.0999 17.53 22.0999 17.7802C22.0999 18.0305 22.3028 18.2334 22.5531 18.2334Z" fill="#FFFAE2"/>
<path d="M22.5531 20.9118H25.8593C26.1096 20.9118 26.3125 20.7088 26.3125 20.4586C26.3125 20.2083 26.1096 20.0054 25.8593 20.0054H22.5531C22.3028 20.0054 22.0999 20.2083 22.0999 20.4586C22.0999 20.7088 22.3028 20.9118 22.5531 20.9118Z" fill="#FFFAE2"/>
<path d="M0.605448 6.28571C0.367076 6.36064 0.17287 6.5365 0.0737377 6.76781C-0.0997642 7.1714 0.0589611 7.49778 0.280284 7.95512C0.895294 9.21924 1.37626 10.641 1.31115 12.1289C1.25212 13.4613 1.1288 16.2336 3.1375 17.4782C4.57107 18.3545 6.09329 18.223 7.2517 17.31C7.43283 18.4347 7.5085 19.7032 7.40036 21.1362C7.38144 21.3857 7.5685 21.6035 7.81816 21.6224C7.82993 21.623 7.84113 21.6236 7.85299 21.6236C8.08787 21.6236 8.28613 21.4425 8.3044 21.2047C8.4369 19.4485 8.31276 17.9235 8.05198 16.6012C11.0768 17.0574 13.7909 13.4169 10.5226 9.86356C8.24781 7.39094 3.61141 5.31435 0.605448 6.28571ZM7.82839 15.6365C7.71586 15.2177 7.59432 14.8159 7.45857 14.4463C9.00352 11.8519 7.701 9.90481 7.64295 9.82094C7.50014 9.61618 7.22101 9.566 7.01568 9.70646C6.8097 9.84749 6.75726 10.129 6.8965 10.3355C6.93612 10.3936 7.73064 11.6101 7.00058 13.3612C5.97694 11.1996 4.73458 10.1358 4.64057 10.0582C4.44823 9.89945 4.16317 9.926 4.00266 10.119C3.84336 10.312 3.87048 10.5975 4.06347 10.7569C4.08718 10.7763 5.51538 11.9984 6.50987 14.5466C5.61679 14.1255 5.10805 13.2137 5.09677 13.1916C4.97994 12.9715 4.70852 12.8848 4.48541 13.0016C4.26352 13.1173 4.17795 13.3911 4.29421 13.613C4.33253 13.6869 5.20751 15.3207 6.8788 15.6203C6.93936 15.828 6.9923 16.0498 7.04523 16.2714C6.21044 17.2418 4.84297 17.4596 3.61327 16.7063C2.05833 15.7432 2.16104 13.4183 2.21649 12.169C2.2911 10.5268 1.78473 8.97421 1.09356 7.55445C1.01391 7.38923 0.923629 7.20396 0.908284 7.14022C3.5165 6.3194 7.77765 8.21834 9.85593 10.4772C12.4252 13.2708 10.6272 16.1963 7.82839 15.6365Z" fill="#FFFAE2"/>
</svg>
