<svg width="60" height="60" viewBox="0 0 60 60" fill="none" xmlns="http://www.w3.org/2000/svg">
<path d="M45.563 29.1735L23.563 14.1735C23.256 13.9655 22.86 13.9425 22.532 14.1155C22.205 14.2885 22 14.6285 22 14.9995V44.9995C22 45.3705 22.205 45.7105 22.533 45.8835C22.679 45.9615 22.84 45.9995 23 45.9995C23.197 45.9995 23.394 45.9405 23.563 45.8255L45.563 30.8255C45.836 30.6395 46 30.3305 46 29.9995C46 29.6685 45.836 29.3595 45.563 29.1735ZM24 43.1065V16.8925L43.225 29.9995L24 43.1065Z" fill="#FFFAE2"/>
<path d="M30 0C13.458 0 0 13.458 0 30C0 46.542 13.458 60 30 60C46.542 60 60 46.542 60 30C60 13.458 46.542 0 30 0ZM30 58C14.561 58 2 45.439 2 30C2 14.561 14.561 2 30 2C45.439 2 58 14.561 58 30C58 45.439 45.439 58 30 58Z" fill="#FFFAE2"/>
</svg>
