<svg width="25" height="25" viewBox="0 0 25 25" fill="none" xmlns="http://www.w3.org/2000/svg">
<path d="M12.4999 4.7326e-05C10.0276 5.27161e-05 7.61091 0.733162 5.55532 2.10667C3.49973 3.48018 1.89759 5.43239 0.951502 7.71644C0.00541671 10.0005 -0.242123 12.5138 0.240186 14.9385C0.722495 17.3633 1.91299 19.5906 3.66113 21.3387C6.00534 23.6829 9.18477 24.9999 12.5 24.9999C15.8152 24.9999 18.9946 23.6829 21.3388 21.3387C23.683 18.9945 25 15.8151 25 12.4998C25 9.18463 23.683 6.0052 21.3388 3.66099C20.1808 2.49664 18.8033 1.57355 17.2861 0.945148C15.7688 0.316745 14.1421 -0.00448627 12.4999 4.7326e-05ZM20.9075 20.9075C18.6776 23.1374 15.6533 24.3901 12.4999 24.3901C9.34641 24.3901 6.32211 23.1374 4.09227 20.9075C1.86244 18.6777 0.609728 15.6534 0.609728 12.4999C0.609728 9.34648 1.86244 6.32218 4.09227 4.09234C6.32211 1.86251 9.34641 0.609797 12.4999 0.609797C15.6533 0.609797 18.6776 1.86251 20.9075 4.09234C23.1373 6.32218 24.39 9.34648 24.39 12.4999C24.39 15.6534 23.1373 18.6777 20.9075 20.9075Z" fill="#31394F"/>
<path d="M19.6284 15.3828C19.1487 15.5 18.7264 15.7841 18.4371 16.1843L16.2855 14.8848C16.5711 14.2678 16.7044 13.5912 16.6743 12.9119C16.6442 12.2326 16.4515 11.5704 16.1124 10.981C15.7733 10.3916 15.2977 9.89224 14.7256 9.52479C14.1535 9.15734 13.5015 8.93256 12.8245 8.86934V6.21753C13.348 6.14052 13.823 5.86825 14.154 5.45542C14.485 5.04259 14.6476 4.51978 14.609 3.99203C14.5704 3.46429 14.3335 2.9707 13.9459 2.61044C13.5583 2.25017 13.0488 2.04993 12.5196 2.04993C11.9904 2.04993 11.4809 2.25017 11.0933 2.61044C10.7057 2.9707 10.4688 3.46429 10.4302 3.99203C10.3916 4.51978 10.5542 5.04259 10.8852 5.45542C11.2162 5.86825 11.6912 6.14052 12.2147 6.21753V8.85546C11.5133 8.89019 10.8314 9.09817 10.2299 9.4608C9.62847 9.82343 9.12623 10.3294 8.7681 10.9336C8.40997 11.5377 8.20709 12.2212 8.1776 12.9228C8.14811 13.6245 8.29292 14.3226 8.5991 14.9547L6.56299 16.1843C6.25196 15.7581 5.7912 15.4654 5.27325 15.365C4.7553 15.2645 4.21852 15.3637 3.7707 15.6427C3.32289 15.9216 2.99719 16.3597 2.85904 16.8689C2.72088 17.3781 2.78049 17.9207 3.02589 18.3878C3.27129 18.8548 3.68431 19.2117 4.18201 19.3868C4.67971 19.5619 5.22523 19.5423 5.70902 19.3317C6.1928 19.1212 6.57903 18.7355 6.79013 18.2519C7.00123 17.7684 7.02158 17.2229 6.84709 16.725L8.90403 15.4826C9.29657 16.0645 9.82718 16.54 10.4484 16.8667C11.0697 17.1934 11.7622 17.361 12.464 17.3547C13.1659 17.3483 13.8552 17.1681 14.4704 16.8303C15.0857 16.4924 15.6076 16.0073 15.9895 15.4184L18.153 16.7249C17.999 17.1649 17.9962 17.6437 18.1449 18.0855C18.2937 18.5273 18.5855 18.9069 18.9743 19.1641C19.363 19.4214 19.8264 19.5417 20.2912 19.506C20.756 19.4702 21.1956 19.2805 21.5405 18.9668C21.8853 18.6532 22.1157 18.2334 22.1952 17.7741C22.2746 17.3148 22.1986 16.842 21.9792 16.4307C21.7598 16.0194 21.4095 15.6931 20.9837 15.5033C20.5579 15.3135 20.081 15.2711 19.6284 15.3828V15.3828ZM6.31096 17.7729C6.22857 18.1065 6.03306 18.4011 5.75775 18.6067C5.48244 18.8123 5.14436 18.9161 4.80112 18.9004C4.45787 18.8847 4.13069 18.7504 3.87534 18.5205C3.61998 18.2906 3.45224 17.9792 3.40069 17.6395C3.34915 17.2998 3.41699 16.9527 3.59266 16.6574C3.76833 16.3621 4.04096 16.1369 4.36409 16.02C4.68723 15.9032 5.04087 15.902 5.36478 16.0167C5.68868 16.1314 5.9628 16.3548 6.14043 16.6489C6.34391 16.9862 6.40524 17.3904 6.31096 17.7729ZM11.0341 4.14493C11.0341 3.85118 11.1213 3.56402 11.2845 3.31977C11.4477 3.07552 11.6796 2.88515 11.951 2.77273C12.2224 2.66032 12.5211 2.63091 12.8092 2.68822C13.0973 2.74554 13.3619 2.887 13.5696 3.09472C13.7774 3.30244 13.9188 3.56709 13.9761 3.85521C14.0334 4.14332 14.004 4.44196 13.8916 4.71335C13.7792 4.98474 13.5888 5.2167 13.3445 5.3799C13.1003 5.5431 12.8131 5.6302 12.5193 5.63019C12.1256 5.62973 11.7481 5.4731 11.4697 5.19467C11.1913 4.91624 11.0346 4.53874 11.0342 4.14498L11.0341 4.14493ZM12.5193 11.1298C12.8499 11.1296 13.1752 11.2123 13.4656 11.3703C13.7559 11.5283 14.002 11.7566 14.1814 12.0343C14.3607 12.312 14.4675 12.6302 14.4921 12.9599C14.5166 13.2895 14.4581 13.6201 14.3219 13.9213C14.286 13.9481 14.2565 13.9825 14.2354 14.022C14.2143 14.0615 14.2022 14.1052 14.2 14.1499C14.0184 14.4428 13.7634 14.6831 13.4604 14.847C13.1574 15.011 12.8168 15.093 12.4723 15.0848C12.1279 15.0767 11.7915 14.9787 11.4966 14.8005C11.2016 14.6224 10.9584 14.3703 10.7908 14.0692C10.6233 13.7682 10.5373 13.4285 10.5414 13.084C10.5455 12.7395 10.6396 12.402 10.8142 12.105C10.9889 11.808 11.2381 11.5617 11.5372 11.3907C11.8363 11.2196 12.1749 11.1297 12.5194 11.1297L12.5193 11.1298ZM9.1238 14.6376C8.87288 14.099 8.75765 13.507 8.78818 12.9136C8.81871 12.3201 8.99406 11.7432 9.29893 11.2331C9.6038 10.723 10.0289 10.2953 10.5371 9.98735C11.0454 9.6794 11.6213 9.50056 12.2145 9.46643V10.5386C11.8224 10.5848 11.4461 10.7202 11.1144 10.9344C10.7828 11.1486 10.5045 11.4359 10.3011 11.7743C10.0977 12.1126 9.97444 12.4931 9.94084 12.8865C9.90724 13.2799 9.96417 13.6758 10.1073 14.0437L9.1238 14.6376ZM12.4259 16.7449C11.8355 16.7447 11.2541 16.601 10.7317 16.326C10.2092 16.0511 9.7615 15.6532 9.42704 15.1667L10.3944 14.5824C10.6312 14.9245 10.9472 15.2044 11.3154 15.3982C11.6836 15.5921 12.0931 15.6941 12.5092 15.6957C12.9253 15.6974 13.3356 15.5985 13.7053 15.4075C14.075 15.2165 14.3931 14.9391 14.6326 14.5989L15.4675 15.103C15.1363 15.6072 14.6849 16.0213 14.154 16.3079C13.6231 16.5945 13.0293 16.7447 12.426 16.745L12.4259 16.7449ZM15.7598 14.5675L14.924 14.0627C15.0707 13.6943 15.1306 13.2971 15.0992 12.9018C15.0678 12.5065 14.9459 12.1237 14.7429 11.783C14.54 11.4424 14.2614 11.1529 13.9287 10.9372C13.596 10.7214 13.2181 10.585 12.8243 10.5386V9.48203C13.3928 9.5442 13.9386 9.73945 14.4176 10.0519C14.8966 10.3644 15.2951 10.7854 15.5811 11.2807C15.867 11.776 16.0321 12.3317 16.0632 12.9027C16.0943 13.4738 15.9903 14.0441 15.7598 14.5675L15.7598 14.5675ZM21.5727 17.0606C21.6466 17.3604 21.6251 17.6758 21.5112 17.9629C21.3973 18.2499 21.1967 18.4943 20.9374 18.6619C20.6781 18.8296 20.3729 18.9122 20.0645 18.8982C19.756 18.8843 19.4595 18.7744 19.2164 18.584C18.9733 18.3936 18.7956 18.1322 18.7081 17.836C18.6206 17.5399 18.6277 17.2238 18.7283 16.9319C18.8289 16.6399 19.0181 16.3866 19.2695 16.2073C19.5209 16.0279 19.8219 15.9314 20.1307 15.9313C20.4626 15.9316 20.7849 16.0429 21.0462 16.2476C21.3075 16.4522 21.4929 16.7385 21.5727 17.0606L21.5727 17.0606Z" fill="#31394F"/>
</svg>
