<svg width="30" height="30" viewBox="0 0 30 30" fill="none" xmlns="http://www.w3.org/2000/svg">
<path fill-rule="evenodd" clip-rule="evenodd" d="M11.7276 11.9419C12.0822 12.8955 12.2759 13.9253 12.2759 15C12.2759 16.0742 12.0822 17.1045 11.7276 18.0581L12.9825 18.7713C13.4492 17.6032 13.706 16.3311 13.706 14.9995C13.706 14.0979 13.5886 13.2236 13.3678 12.3907L17.3199 10.1429C17.8609 11.6633 18.155 13.2973 18.155 14.9995C18.155 18.4498 16.9463 21.6214 14.9239 24.1277L14.8066 24.0606L11.0113 21.9021L9.74005 21.1792L5.63887 18.8465C6.96186 17.683 7.82831 16.9616 7.82831 14.9995C7.82831 13.422 6.99773 11.9717 5.63887 11.1524L11.0113 8.09692L14.8066 5.93842L14.9239 5.87128C15.6976 6.83039 16.3525 7.88693 16.8659 9.01969L12.983 11.2282L11.7276 11.9419ZM3.16658 11.8809C1.41779 11.8809 0 13.2776 0 15.0005C0 16.7234 1.41779 18.1196 3.16658 18.1196C4.91486 18.1196 6.33316 16.7234 6.33316 15.0005C6.33316 13.2776 4.91486 11.8809 3.16658 11.8809ZM20.0606 2.94952L16.1803 5.15649C17.9603 7.42201 19.1399 10.1681 19.4852 13.1636L23.6054 10.8203L24.9801 10.0384C25.3536 11.633 25.5514 13.2933 25.5514 15C25.5514 18.4573 24.7403 21.7284 23.2959 24.6386L21.9821 23.891C23.3 21.2019 24.0388 18.1863 24.0388 15C24.0388 14.0071 23.9671 13.0303 23.8282 12.0752L19.5821 14.4907C19.5872 14.6598 19.5903 14.8299 19.5903 15C19.5903 18.7077 18.3175 22.1222 16.1798 24.8435L20.0601 27.0505L21.3775 27.7996L25.246 30C28.2435 25.7431 30 20.5734 30 15C30 11.1711 29.1709 7.53256 27.6804 4.24987L23.8021 6.45583L22.4812 7.20747C22.3259 6.83544 22.1594 6.46896 21.9826 6.10853L27.1573 3.16557C26.5941 2.06411 25.9547 1.00656 25.2465 0C23.5177 0.983342 21.7894 1.96618 20.0606 2.94952Z" fill="#FFFAE2"/>
</svg>
