<svg width="114" height="94" viewBox="0 0 114 94" fill="none" xmlns="http://www.w3.org/2000/svg">
<path d="M12.546 88.198C10.5807 88.198 9.07 87.5967 8.014 86.394C6.958 85.1767 6.43 83.4533 6.43 81.224V72.6H8.3V81.158C8.3 82.4487 8.57867 83.644 9.136 84.744C9.708 85.8293 10.8447 86.372 12.546 86.372C14.218 86.372 15.3327 85.8293 15.89 84.744C16.4473 83.6587 16.726 82.4633 16.726 81.158V72.6H18.596V81.224C18.596 83.4533 18.068 85.1767 17.012 86.394C15.9707 87.5967 14.482 88.198 12.546 88.198ZM21.7535 76.406H23.6455V78.496H23.8215C24.1148 77.8213 24.5915 77.2567 25.2515 76.802C25.9115 76.3327 26.7182 76.098 27.6715 76.098C28.6542 76.098 29.4755 76.3327 30.1355 76.802C30.7955 77.2567 31.2795 77.8653 31.5875 78.628C31.9102 79.376 32.0715 80.19 32.0715 81.07V88H30.1795V81.312C30.1795 80.168 29.8788 79.2953 29.2775 78.694C28.6908 78.0927 27.9208 77.792 26.9675 77.792C25.9555 77.792 25.1488 78.122 24.5475 78.782C23.9462 79.4273 23.6455 80.2707 23.6455 81.312V88H21.7535V76.406ZM38.2587 88.088C37.3933 88.088 36.748 87.9487 36.3227 87.67C35.8973 87.3913 35.626 87.032 35.5087 86.592C35.406 86.1373 35.3547 85.5507 35.3547 84.832L35.3767 71.5H37.2687V84.546C37.2687 85.1033 37.2907 85.5213 37.3347 85.8C37.3933 86.064 37.5327 86.2767 37.7527 86.438C37.9873 86.5993 38.354 86.68 38.8527 86.68C39.1607 86.68 39.432 86.658 39.6667 86.614V87.978C39.2707 88.0513 38.8013 88.088 38.2587 88.088ZM42.3606 76.406H44.2526V88H42.3606V76.406ZM43.2846 74.25C42.9326 74.25 42.6393 74.1327 42.4046 73.898C42.17 73.6487 42.0526 73.3553 42.0526 73.018C42.0526 72.6807 42.17 72.3947 42.4046 72.16C42.6393 71.9107 42.9326 71.786 43.2846 71.786C43.6366 71.786 43.93 71.9107 44.1646 72.16C44.414 72.3947 44.5386 72.6807 44.5386 73.018C44.5386 73.3553 44.414 73.6487 44.1646 73.898C43.93 74.1327 43.6366 74.25 43.2846 74.25ZM47.7711 76.406H49.6411V78.54H49.8171C49.8464 78.3933 49.9931 78.1293 50.2571 77.748C50.5211 77.352 50.9244 76.978 51.4671 76.626C52.0098 76.274 52.6844 76.098 53.4911 76.098C54.3418 76.098 55.0458 76.296 55.6031 76.692C56.1751 77.088 56.6004 77.5133 56.8791 77.968C57.1578 78.4227 57.2971 78.7087 57.2971 78.826H57.4731C57.6784 78.3127 58.0818 77.7333 58.6831 77.088C59.2991 76.428 60.2378 76.098 61.4991 76.098C62.4378 76.098 63.2224 76.34 63.8531 76.824C64.4838 77.2933 64.9458 77.902 65.2391 78.65C65.5471 79.398 65.7011 80.1973 65.7011 81.048V88H63.8311V81.224C63.8311 80.1093 63.5378 79.266 62.9511 78.694C62.3791 78.122 61.6678 77.836 60.8171 77.836C59.9371 77.836 59.1891 78.1367 58.5731 78.738C57.9718 79.3247 57.6711 80.1533 57.6711 81.224V88H55.8011V81.224C55.8011 80.1093 55.5078 79.266 54.9211 78.694C54.3491 78.122 53.6378 77.836 52.7871 77.836C51.9071 77.836 51.1591 78.1367 50.5431 78.738C49.9418 79.3247 49.6411 80.1533 49.6411 81.224V88H47.7711V76.406ZM69.0013 76.406H70.8933V88H69.0013V76.406ZM69.9253 74.25C69.5733 74.25 69.2799 74.1327 69.0453 73.898C68.8106 73.6487 68.6933 73.3553 68.6933 73.018C68.6933 72.6807 68.8106 72.3947 69.0453 72.16C69.2799 71.9107 69.5733 71.786 69.9253 71.786C70.2773 71.786 70.5706 71.9107 70.8053 72.16C71.0546 72.3947 71.1793 72.6807 71.1793 73.018C71.1793 73.3553 71.0546 73.6487 70.8053 73.898C70.5706 74.1327 70.2773 74.25 69.9253 74.25ZM77.4493 77.924V84.656C77.4493 85.1987 77.4713 85.602 77.5153 85.866C77.5739 86.1153 77.7133 86.3133 77.9333 86.46C78.1679 86.6067 78.5419 86.68 79.0553 86.68C79.4073 86.68 79.7886 86.6287 80.1993 86.526V87.89C80.0966 87.934 79.8693 87.978 79.5173 88.022C79.1799 88.066 78.8279 88.088 78.4613 88.088C77.6106 88.088 76.9726 87.9707 76.5473 87.736C76.1366 87.4867 75.8653 87.1567 75.7333 86.746C75.6159 86.3207 75.5573 85.7633 75.5573 85.074V77.924H73.4013V76.406H75.5573V72.6H77.4493V76.406H80.1993V77.924H77.4493ZM87.868 88.154C86.68 88.154 85.6753 87.868 84.854 87.296C84.0473 86.724 83.446 85.976 83.05 85.052C82.654 84.128 82.456 83.1527 82.456 82.126C82.456 81.0847 82.654 80.1093 83.05 79.2C83.446 78.276 84.0547 77.528 84.876 76.956C85.6973 76.384 86.702 76.098 87.89 76.098C89.4447 76.098 90.684 76.6187 91.608 77.66C92.5467 78.7013 93.016 80.1973 93.016 82.148V82.676H84.348V82.83C84.348 83.4753 84.4947 84.084 84.788 84.656C85.0813 85.228 85.492 85.69 86.02 86.042C86.548 86.394 87.1567 86.57 87.846 86.57C88.594 86.57 89.2393 86.3793 89.782 85.998C90.3247 85.6167 90.728 85.1033 90.992 84.458H92.862C92.554 85.514 91.9747 86.394 91.124 87.098C90.288 87.802 89.2027 88.154 87.868 88.154ZM91.146 81.334C91.0873 80.014 90.7647 79.0607 90.178 78.474C89.5913 77.8873 88.8213 77.594 87.868 77.594C86.8267 77.594 85.998 77.9387 85.382 78.628C84.766 79.3173 84.436 80.2193 84.392 81.334H91.146ZM100.1 88.154C99.0735 88.154 98.1935 87.89 97.4602 87.362C96.7415 86.834 96.1915 86.1153 95.8102 85.206C95.4288 84.2967 95.2382 83.27 95.2382 82.126C95.2382 80.9673 95.4288 79.9333 95.8102 79.024C96.1915 78.1147 96.7488 77.4033 97.4822 76.89C98.2155 76.362 99.1028 76.098 100.144 76.098C101.171 76.098 101.999 76.3473 102.63 76.846C103.275 77.33 103.752 77.902 104.06 78.562H104.236V71.5H106.128V88H104.236V85.624H104.06C103.708 86.328 103.209 86.9293 102.564 87.428C101.933 87.912 101.112 88.154 100.1 88.154ZM100.672 86.526C101.816 86.526 102.689 86.108 103.29 85.272C103.891 84.4213 104.192 83.3727 104.192 82.126C104.192 80.8793 103.891 79.838 103.29 79.002C102.689 78.166 101.816 77.748 100.672 77.748C99.5135 77.748 98.6408 78.166 98.0542 79.002C97.4675 79.838 97.1742 80.8793 97.1742 82.126C97.1742 83.3873 97.4675 84.436 98.0542 85.272C98.6555 86.108 99.5282 86.526 100.672 86.526Z" fill="#FFFAE2"/>
<path d="M85.3249 0.000629773C81.178 -0.0271331 77.0751 0.86334 73.3029 2.60984C69.5307 4.35634 66.1801 6.91674 63.4852 10.1122L59.2564 15.0504L68.6953 26.1026L74.2623 19.5906C75.6287 17.9738 77.3262 16.6782 79.2367 15.7942C81.1472 14.9101 83.2248 14.4588 85.3249 14.4715C87.209 14.4413 89.0803 14.7913 90.8296 15.5013C92.579 16.2113 94.1715 17.2671 95.5145 18.6071C96.8574 19.9472 97.9239 21.5447 98.6519 23.3067C99.3799 25.0686 99.7548 26.9598 99.7548 28.8701C99.7548 30.7804 99.3799 32.6716 98.6519 34.4336C97.9239 36.1955 96.8574 37.7931 95.5145 39.1331C94.1715 40.4731 92.579 41.5289 90.8296 42.2389C89.0803 42.9489 87.209 43.299 85.3249 43.2687C83.2316 43.2827 81.1604 42.8336 79.2559 41.9525C77.3514 41.0715 75.6594 39.7799 74.298 38.1677C53.6252 13.9687 63.4477 25.5056 50.3171 10.0941C47.6186 6.90423 44.2669 4.34881 40.4952 2.60567C36.7235 0.862538 32.6224 -0.0264302 28.4773 0.000629773C20.9247 0.000629773 13.6814 3.04223 8.34082 8.45631C3.00028 13.8704 0 21.2134 0 28.8701C0 36.5268 3.00028 43.8698 8.34082 49.2839C13.6814 54.698 20.9247 57.7396 28.4773 57.7396C32.6243 57.7674 36.7271 56.8769 40.4994 55.1304C44.2716 53.3839 47.6222 50.8235 50.3171 47.628L54.5459 42.6898L45.1069 31.6377L39.54 38.1496C38.1736 39.7664 36.4761 41.062 34.5656 41.9461C32.6551 42.8301 30.5774 43.2815 28.4773 43.2687C26.5932 43.299 24.722 42.9489 22.9727 42.2389C21.2233 41.5289 19.6308 40.4731 18.2878 39.1331C16.9449 37.7931 15.8783 36.1955 15.1503 34.4336C14.4223 32.6716 14.0474 30.7804 14.0474 28.8701C14.0474 26.9598 14.4223 25.0686 15.1503 23.3067C15.8783 21.5447 16.9449 19.9472 18.2878 18.6071C19.6308 17.2671 21.2233 16.2113 22.9727 15.5013C24.722 14.7913 26.5932 14.4413 28.4773 14.4715C30.5707 14.4575 32.6419 14.9067 34.5464 15.7877C36.4509 16.6687 38.1429 17.9604 39.5043 19.5725C60.1771 43.7715 50.3546 32.2346 63.4852 47.6461C66.5795 51.3828 70.5537 54.2676 75.0399 56.0336C79.5261 57.7995 84.3793 58.3895 89.1501 57.7489C93.921 57.1083 98.4553 55.2579 102.333 52.3689C106.211 49.4798 109.308 45.6456 111.336 41.2212C113.364 36.7968 114.258 31.9251 113.936 27.0573C113.613 22.1894 112.085 17.4827 109.491 13.3729C106.898 9.26309 103.324 5.883 99.0994 3.54554C94.8751 1.20808 90.1375 -0.011181 85.3249 0.000629773Z" fill="#16CFA3"/>
</svg>
