<svg width="66" height="50" viewBox="0 0 66 50" fill="none" xmlns="http://www.w3.org/2000/svg">
<path d="M2.84624 23.8329L30.2527 22.746L46.9279 3.48432L62.8669 27.3659L65.9998 26.9163L47.2517 0.289519L28.1056 3.83495V0.431831L26.5278 0.105957L21.7758 1.11039V5.00644L15.3924 6.19031L0 20.172V23.8535C0 23.8556 1.57368 23.8143 2.84624 23.8329Z" fill="#16CFA3"/>
<path d="M46.8234 5.13428L30.7277 23.7297L4.44531 24.7754V47.0916L28.593 49.9915V49.9997L43.6884 48.2383V30.8515L50.6349 30.8412V47.4257L61.7641 46.0624V27.5206L46.8234 5.13428ZM14.698 40.1286L7.69993 39.6769V30.7463L14.698 30.7504V40.1286ZM26.5284 40.8422L18.3919 40.3204V30.7092L26.5284 30.7113V40.8422ZM40.2626 40.4256L31.6723 40.9887V30.7999L40.2626 30.7938V40.4256ZM59.7531 39.2046L53.2666 39.6316V30.8144L59.7531 30.8061V39.2046Z" fill="#16CFA3"/>
</svg>
