<svg width="54" height="54" viewBox="0 0 54 54" fill="none" xmlns="http://www.w3.org/2000/svg">
<path d="M53.6613 51.6083L28.5534 7.84099L31.9103 1.98706C32.0587 1.67317 32.0834 1.31491 31.9795 0.98362C31.8757 0.652328 31.6508 0.372303 31.3498 0.199304C31.0488 0.0263038 30.6937 -0.0269803 30.3551 0.050061C30.0166 0.127102 29.7195 0.328817 29.523 0.615042L26.971 5.07866L24.4191 0.615042C24.2226 0.328817 23.9255 0.127102 23.5869 0.050061C23.2484 -0.0269803 22.8933 0.0263038 22.5923 0.199304C22.2912 0.372303 22.0664 0.652328 21.9625 0.98362C21.8587 1.31491 21.8834 1.67317 22.0318 1.98706L25.3886 7.84099L0.171015 51.8369C0.0562461 52.0464 -0.00262084 52.2819 8.95348e-05 52.5208C0.00279991 52.7596 0.0669962 52.9937 0.186489 53.2005C0.305982 53.4073 0.476741 53.5799 0.682303 53.7015C0.887865 53.8231 1.1213 53.8898 1.36009 53.895H52.582C52.85 53.9021 53.1143 53.8311 53.3426 53.6906C53.5709 53.5502 53.7534 53.3463 53.8679 53.1038C53.9823 52.8614 54.0237 52.5909 53.987 52.3253C53.9503 52.0598 53.8372 51.8106 53.6613 51.6083ZM14.4491 51.1509C20.8226 42.6091 25.1107 32.6954 26.971 22.2014C28.8409 32.6974 33.1383 42.611 39.5204 51.1509H14.4491Z" fill="#31394F"/>
</svg>
