<svg width="46" height="56" viewBox="0 0 46 56" fill="none" xmlns="http://www.w3.org/2000/svg">
<path d="M29.2947 6.09824L26.8141 8.52471L27.4006 11.9517C27.4954 12.5106 27.0674 13.0269 26.4933 13.0269C26.1818 13.0269 26.3436 13.0684 23.0008 11.3042L19.9372 12.9211C19.2645 13.2762 18.4735 12.704 18.601 11.9517L19.1874 8.52471L16.7069 6.09824C16.1609 5.56464 16.4668 4.63937 17.2175 4.52966L20.6422 4.03056L22.1751 0.914103C22.5121 0.230322 23.4891 0.229287 23.8265 0.914103L25.3594 4.03056L28.7841 4.52966C29.5362 4.6396 29.8395 5.56579 29.2947 6.09824ZM13.4013 10.8064L13.2926 10.1727C13.718 9.75807 14.1947 9.42388 13.9857 8.78092C13.7769 8.13831 13.1905 8.14717 12.6069 8.0623L12.3224 7.48581C11.9857 6.80341 11.0094 6.80295 10.6724 7.48581L10.3879 8.0623C9.8 8.14774 9.21788 8.13785 9.00904 8.78092C8.8002 9.42353 9.27986 9.76105 9.70214 10.1727L9.59346 10.8064C9.4649 11.5563 10.2542 12.1305 10.9284 11.7762L11.4973 11.4769C12.0797 11.7833 12.2068 11.8819 12.4942 11.8819C13.0618 11.8819 13.4981 11.3706 13.4013 10.8064ZM5.3514 15.4063L5.24272 14.7727C5.6681 14.358 6.14477 14.0238 5.93582 13.3809C5.72698 12.7383 5.14061 12.7471 4.55699 12.6622L4.27248 12.0858C3.93577 11.4033 2.95954 11.4029 2.62248 12.0858L2.33798 12.6622C1.7501 12.7477 1.16798 12.7378 0.959144 13.3809C0.750307 14.0235 1.22997 14.361 1.65224 14.7727L1.54357 15.4063C1.415 16.1562 2.20435 16.7304 2.87847 16.3761L3.44737 16.0769C4.02983 16.3832 4.15691 16.4818 4.44429 16.4818C5.01192 16.4818 5.44823 15.9705 5.3514 15.4063ZM36.4078 10.8064L36.2991 10.1727C36.7245 9.75807 37.2012 9.42388 36.9922 8.78092C36.7834 8.13831 36.197 8.14717 35.6134 8.0623C35.3504 7.52928 35.1801 6.97303 34.504 6.97303C33.8284 6.97303 33.6555 7.53342 33.3945 8.0623L32.7583 8.15476C32.0053 8.26423 31.7032 9.1925 32.2484 9.72403L32.7087 10.1727C32.6082 10.7586 32.4191 11.3088 32.9661 11.7061C33.5127 12.1033 33.9819 11.7514 34.504 11.4769C35.0864 11.7833 35.2135 11.8819 35.5009 11.8819C36.0683 11.8819 36.5045 11.3706 36.4078 10.8064ZM44.4577 15.4063L44.349 14.7727C44.7744 14.358 45.2511 14.0238 45.0421 13.3809C44.8333 12.7383 44.2469 12.7471 43.6633 12.6622C43.4003 12.1292 43.23 11.573 42.5539 11.573C41.8783 11.573 41.7054 12.1334 41.4444 12.6622L40.8082 12.7547C40.0552 12.8642 39.7531 13.7924 40.2983 14.324L40.7586 14.7727C40.6581 15.3585 40.469 15.9088 41.016 16.3061C41.5626 16.7033 42.0318 16.3514 42.5539 16.0769C43.1363 16.3832 43.2634 16.4818 43.5508 16.4818C44.1182 16.4818 44.5544 15.9705 44.4577 15.4063ZM9.44925 54.6531C9.46501 55.1713 9.04814 55.5994 8.52961 55.5994H3.68093C1.64856 55.5994 0.000976562 53.9518 0.000976562 51.9194V33.5196C0.000976562 31.4873 1.64856 29.8397 3.68093 29.8397H8.51087C9.01893 29.8397 9.43085 30.2525 9.43085 30.7606C9.42982 48.0863 9.40084 53.0658 9.44925 54.6531ZM6.3259 39.0396C6.3259 38.5315 5.91397 38.1196 5.40591 38.1196C4.89784 38.1196 4.48592 38.5315 4.48592 39.0396V42.9495C4.48592 43.4576 4.89784 43.8695 5.40591 43.8695C5.91397 43.8695 6.3259 43.4576 6.3259 42.9495V39.0396ZM46.0004 33.5196V51.9194C46.0004 53.9518 44.3528 55.5994 42.3204 55.5994H37.4726C36.9541 55.5994 36.537 55.1712 36.5529 54.653C36.6016 53.0685 36.5715 48.0963 36.5705 30.7606C36.5705 30.2525 36.9824 29.8397 37.4905 29.8397H42.3204C44.3529 29.8397 46.0004 31.4873 46.0004 33.5196ZM41.5154 39.0396C41.5154 38.5315 41.1035 38.1196 40.5955 38.1196C40.0874 38.1196 39.6755 38.5315 39.6755 39.0396V42.9495C39.6755 43.4576 40.0874 43.8695 40.5955 43.8695C41.1035 43.8695 41.5154 43.4576 41.5154 42.9495V39.0396ZM20.7007 55.5994H25.3007C25.8087 55.5994 26.2206 55.1874 26.2206 54.6794V46.0545C26.2206 45.5464 25.8087 45.1345 25.3007 45.1345H20.7007C20.1926 45.1345 19.7807 45.5464 19.7807 46.0545V54.6794C19.7807 55.1874 20.1926 55.5994 20.7007 55.5994ZM34.7305 20.4098V54.6794C34.7305 55.1874 34.3186 55.5994 33.8105 55.5994H28.9806C28.4725 55.5994 28.0606 55.1874 28.0606 54.6794V44.2145C28.0606 43.7064 27.6487 43.2945 27.1406 43.2945H18.8607C18.3527 43.2945 17.9407 43.7064 17.9407 44.2145V54.6794C17.9407 55.1874 17.5288 55.5994 17.0208 55.5994H12.1908C11.6828 55.5994 11.2708 55.1874 11.2708 54.6794V20.4098C11.2708 18.3774 12.9184 16.7299 14.9508 16.7299H31.0506C33.0831 16.7299 34.7305 18.3774 34.7305 20.4098ZM27.6006 35.8196C27.6006 35.3115 27.1887 34.8996 26.6806 34.8996H19.3207C18.8127 34.8996 18.4007 35.3115 18.4007 35.8196C18.4007 36.3277 18.8127 36.7396 19.3207 36.7396H26.6806C27.1888 36.7396 27.6006 36.3277 27.6006 35.8196ZM29.2106 26.9647C29.2106 26.4567 28.7987 26.0447 28.2906 26.0447H17.7107C17.2027 26.0447 16.7908 26.4567 16.7908 26.9647C16.7908 27.4728 17.2027 27.8847 17.7107 27.8847H28.2906C28.7988 27.8847 29.2106 27.4728 29.2106 26.9647Z" fill="#16CFA3"/>
</svg>
